<?xml version="1.0" encoding="UTF-8" standalone="no"?>
<svg
   xmlns:dc="http://purl.org/dc/elements/1.1/"
   xmlns:cc="http://creativecommons.org/ns#"
   xmlns:rdf="http://www.w3.org/1999/02/22-rdf-syntax-ns#"
   xmlns:svg="http://www.w3.org/2000/svg"
   xmlns="http://www.w3.org/2000/svg"
   xmlns:sodipodi="http://sodipodi.sourceforge.net/DTD/sodipodi-0.dtd"
   xmlns:inkscape="http://www.inkscape.org/namespaces/inkscape"
   data-v-1084b650=""
   viewBox="0 0 240 50"
   version="1.1"
   id="svg16"
   sodipodi:docname="icon-left-font-reduce.svg"
   width="240"
   height="50"
   inkscape:version="1.0.1 (3bc2e813f5, 2020-09-07)">
  <style
     id="style847"></style>
  <metadata
     id="metadata22">
    <rdf:RDF>
      <cc:Work
         rdf:about="">
        <dc:format>image/svg+xml</dc:format>
        <dc:type
           rdf:resource="http://purl.org/dc/dcmitype/StillImage" />
        <dc:title></dc:title>
      </cc:Work>
    </rdf:RDF>
  </metadata>
  <defs
     id="defs20" />
  <sodipodi:namedview
     pagecolor="#ffffff"
     bordercolor="#666666"
     borderopacity="1"
     objecttolerance="10"
     gridtolerance="10"
     guidetolerance="10"
     inkscape:pageopacity="0"
     inkscape:pageshadow="2"
     inkscape:window-width="2560"
     inkscape:window-height="1369"
     id="namedview18"
     showgrid="false"
     inkscape:zoom="2.8066667"
     inkscape:cx="150"
     inkscape:cy="64.489311"
     inkscape:window-x="-8"
     inkscape:window-y="-8"
     inkscape:window-maximized="1"
     inkscape:current-layer="svg16" />
  <!---->
  <!---->
  <!---->
  <!---->
  <g
     id="g1058"
     transform="translate(-13.59219,0.35629454)">
    <g
       data-v-1084b650=""
       id="b5a93e15-ef7c-9d7a-680b-cdb17474f15f"
       fill="#fd2d01"
       transform="matrix(2.2,0,0,2.2,59.513571,5.233)">
      <path
         d="m 5.41,12.67 v 0 q -2.18,0 -3.65,-1.47 v 0 0 Q 0.29,9.73 0.29,7.53 v 0 0 q 0,-2.16 1.47,-3.64 v 0 0 Q 3.23,2.42 5.41,2.42 v 0 0 q 2.19,0 3.76,1.37 v 0 L 7.81,5.28 v 0 Q 6.76,4.46 5.41,4.46 v 0 0 Q 4.03,4.47 3.18,5.33 v 0 0 Q 2.34,6.18 2.34,7.51 v 0 0 q 0,1.43 0.85,2.27 v 0 0 q 0.85,0.84 2.23,0.84 v 0 0 q 1.11,0 1.7,-0.43 v 0 -1.76 L 5.76,8.44 V 6.52 h 3.41 v 4.79 0 q -1.56,1.36 -3.76,1.36 z m 7.43,-6.84 v 0.76 0 q 0.74,-0.75 1.79,-0.75 v 0 0 q 0.33,0 0.63,0.05 v 0 l -0.3,1.89 v 0 Q 14.63,7.48 14.01,7.46 v 0 0 q -0.7,0.05 -1.17,1.01 v 0 4.2 H 10.93 V 6.04 Z m 6.77,6.91 v 0 q -1.49,0 -2.49,-1 v 0 0 q -0.99,-1 -0.99,-2.48 v 0 0 q 0,-1.49 0.99,-2.49 v 0 0 q 1,-1 2.49,-1 v 0 0 q 1.49,0 2.49,1 v 0 0 q 1,1 1,2.49 v 0 0 q 0,1.49 -1,2.48 v 0 0 q -1,1 -2.49,1 z m 0,-1.65 v 0 0 q 0.77,0 1.26,-0.53 v 0 0 q 0.49,-0.52 0.49,-1.3 v 0 0 q 0,-0.78 -0.49,-1.3 v 0 0 Q 20.38,7.43 19.6,7.43 v 0 0 q -0.77,0 -1.26,0.53 v 0 0 q -0.48,0.52 -0.48,1.3 v 0 0 q 0,0.78 0.48,1.3 v 0 0 q 0.49,0.53 1.27,0.53 z m 8.91,-0.84 v 0 -4.42 h 1.91 v 6.84 h -1.91 v -0.62 0 q -0.69,0.62 -1.64,0.62 v 0 0 q -1.3,0 -1.98,-0.79 v 0 0 q -0.69,-0.79 -0.69,-1.81 v 0 -4.24 h 1.92 v 3.76 0 q 0,0.68 0.34,1.06 v 0 0 q 0.34,0.38 1.03,0.4 v 0 0 q 0.6,-0.04 1.02,-0.8 z m 5.45,5.3 -1.91,-0.01 v -9.5 l 1.91,-0.21 v 0.55 0 q 0.77,-0.55 1.51,-0.55 v 0 0 q 1.57,0 2.49,1.03 v 0 0 q 0.93,1.02 0.93,2.39 v 0 0 q 0,1.37 -0.93,2.39 v 0 0 q -0.92,1.03 -2.49,1.03 v 0 0 Q 34.45,12.6 33.97,12.11 v 0 z m 0,-6.92 v 0 1.11 0 q 0.14,1.15 1.44,1.35 v 0 0 q 1.64,-0.13 1.85,-1.7 v 0 0 Q 37.19,7.47 35.41,7.4 v 0 0 q -1.3,0.21 -1.44,1.23 z m 9.38,4.11 v 0 q -1.49,0 -2.48,-1 v 0 0 q -1,-1 -1,-2.48 v 0 0 q 0,-1.49 1,-2.49 v 0 0 q 0.99,-1 2.48,-1 v 0 0 q 1.49,0 2.49,1 v 0 0 q 1,1 1,2.49 v 0 0 q 0,1.49 -1,2.48 v 0 0 q -1,1 -2.49,1 z m 0,-1.65 v 0 0 q 0.78,0 1.26,-0.53 v 0 0 q 0.49,-0.52 0.49,-1.3 v 0 0 q 0,-0.78 -0.49,-1.3 v 0 0 Q 44.13,7.43 43.34,7.43 v 0 0 q -0.77,0 -1.26,0.53 v 0 0 Q 41.6,8.48 41.6,9.26 v 0 0 q 0,0.78 0.48,1.3 v 0 0 q 0.49,0.53 1.27,0.53 z M 50.03,8.3 v 0 4.37 H 48.11 V 6.04 l 1.92,-0.21 v 0.61 0 q 0.64,-0.6 1.64,-0.6 v 0 0 q 1.29,0 1.98,0.78 v 0 0 Q 54.4,5.84 55.9,5.84 v 0 0 q 1.3,0 1.99,0.78 v 0 0 q 0.68,0.79 0.68,1.82 v 0 4.23 h -1.91 v -3.76 0 q 0,-0.68 -0.31,-1.06 v 0 0 q -0.31,-0.37 -1,-0.39 v 0 0 Q 54.78,7.5 54.37,8.21 v 0 0 q -0.04,0.21 -0.04,0.43 v 0 4.03 h -1.91 v -3.76 0 q 0,-0.68 -0.31,-1.06 v 0 0 q -0.31,-0.37 -1,-0.39 v 0 0 Q 50.48,7.5 50.03,8.3 Z M 61.14,7.82 60.39,6.66 v 0 q 1.3,-0.82 3.01,-0.82 v 0 0 q 1.23,0 1.94,0.68 v 0 0 q 0.72,0.69 0.72,2.05 v 0 4.1 h -1.91 v -0.54 0 q -0.84,0.54 -1.51,0.54 v 0 0 q -1.36,0 -2.05,-0.58 v 0 0 q -0.68,-0.58 -0.68,-1.6 v 0 0 q 0,-0.96 0.65,-1.71 v 0 0 Q 61.2,8.03 62.64,8.03 v 0 0 q 0.67,0 1.51,0.41 v 0 -0.21 0 Q 64.13,7.48 63.05,7.41 v 0 0 q -1.23,0 -1.91,0.41 z m 3.01,2.8 v 0 -0.77 0 Q 63.88,9.32 62.85,9.32 v 0 0 q -1.23,0.14 -1.3,0.96 v 0 0 q 0.07,0.81 1.3,0.88 v 0 0 q 1.03,0 1.3,-0.54 z m 5.54,-2.29 v 0 4.34 H 67.77 V 6.04 l 1.92,-0.21 v 0.62 0 q 0.69,-0.61 1.64,-0.61 v 0 0 q 1.3,0 1.98,0.78 v 0 0 q 0.68,0.79 0.68,1.82 v 0 4.23 h -1.91 v -3.76 0 q 0,-0.68 -0.34,-1.06 v 0 0 Q 71.39,7.48 70.7,7.46 v 0 0 Q 70.11,7.5 69.69,8.33 Z m 7.82,4.34 H 75.6 V 5.83 h 1.91 z M 75.53,4.2 v 0 0 q 0,0.41 0.27,0.68 v 0 0 q 0.28,0.27 0.76,0.27 v 0 0 q 0.47,0 0.75,-0.27 v 0 0 Q 77.58,4.61 77.58,4.2 v 0 0 q 0,-0.41 -0.27,-0.69 v 0 0 Q 77.03,3.23 76.54,3.23 v 0 0 q -0.46,0 -0.74,0.28 v 0 0 Q 75.53,3.79 75.53,4.2 Z m 4.53,3.62 -0.75,-1.16 v 0 q 1.3,-0.82 3.01,-0.82 v 0 0 q 1.23,0 1.95,0.68 v 0 0 q 0.71,0.69 0.71,2.05 v 0 4.1 h -1.91 v -0.54 0 q -0.83,0.54 -1.5,0.54 v 0 0 q -1.37,0 -2.05,-0.58 v 0 0 q -0.69,-0.58 -0.69,-1.6 v 0 0 q 0,-0.96 0.65,-1.71 v 0 0 q 0.64,-0.75 2.09,-0.75 v 0 0 q 0.66,0 1.5,0.41 v 0 -0.21 0 Q 83.06,7.48 81.98,7.41 v 0 0 q -1.23,0 -1.92,0.41 z m 3.01,2.8 v 0 -0.77 0 Q 82.8,9.32 81.77,9.32 v 0 0 q -1.23,0.14 -1.3,0.96 v 0 0 q 0.07,0.81 1.3,0.88 v 0 0 q 1.03,0 1.3,-0.54 z"
         id="path4" />
    </g>
    <path
       d="m 38.479809,42.765001 c 4.76,0 9.2225,-1.8275 12.579996,-5.184998 3.3575,-3.3575 5.185,-7.820003 5.185,-12.580003 0,-4.76 -1.8275,-9.2225 -5.185,-12.58 -3.357496,-3.3575006 -7.819996,-5.1850007 -12.579996,-5.1850007 -4.76,0 -9.2225,1.8275001 -12.58,5.1850007 -3.3575,3.3575 -5.185,7.82 -5.185,12.58 0,4.76 1.8275,9.222503 5.185,12.580003 3.3575,3.357498 7.82,5.184998 12.58,5.184998 z m 1.02,-3.0175 c -0.34,0.0425 -0.68,0.0425 -1.02,0.0425 -0.4675,0 -0.935,-0.0425 -1.4025,-0.085 -1.53,-2.379998 -2.6775,-4.929998 -3.3575,-7.607498 h 7.5225 c 0.255,0.6375 0.7225,1.2325 1.275,1.615 -0.7225,2.125 -1.7425,4.1225 -3.0175,6.034998 z m 4.0375,-0.849998 c 0.8075,-1.4875 1.445,-2.975 1.955,-4.5475 1.2325,-0.255 2.21,-1.105 2.6775,-2.2525 h 3.272496 c -1.7,3.1025 -4.547496,5.525 -7.904996,6.8 z M 53.227305,25 c 0,1.4025 -0.2125,2.7625 -0.5525,4.08 h -4.589996 c -0.255,-0.5525 -0.68,-1.0625 -1.19,-1.445 0.085,-0.935 0.1275,-1.87 0.1275,-2.805 0,-1.3175 -0.085,-2.635 -0.255,-3.91 h 5.864996 c 0.425,1.275 0.595,2.6775 0.595,4.08 z m -1.785,-7.0975 h -5.184996 c -0.5525,-2.3375 -1.36,-4.5475 -2.465,-6.6725 3.23,1.2325 5.949996,3.655 7.649996,6.6725 z M 44.047309,24.83 c 0,0.7225 -0.0425,1.445 -0.085,2.1675 -1.19,0.255 -2.1675,1.02 -2.635,2.0825 h -8.2025 c -0.17,-1.275 -0.2975,-2.5925 -0.2975,-3.8675 0,-0.8075 0.0425,-1.615 0.1275,-2.4225 1.105,-0.2125 1.9975,-0.935 2.55,-1.87 h 8.2875 c 0.17,1.275 0.255,2.5925 0.255,3.91 z m -6.6725,-14.535 c 0.3825,-0.0425 0.765,-0.0425 1.105,-0.0425 0.425,0 0.85,0 1.275,0.0425 1.53,2.38 2.6775,4.93 3.3575,7.6075 h -7.395 c -0.255,-0.7225 -0.7225,-1.36 -1.3175,-1.8275 0.765,-2.04 1.7425,-3.9525 2.975,-5.78 z m -4.0375,0.85 c -0.7225,1.36 -1.36,2.805 -1.87,4.25 -1.3175,0.255 -2.38,1.2325 -2.805,2.465 h -3.1025 c 1.6575,-3.0175 4.42,-5.44 7.7775,-6.715 z M 23.732309,25 c 0,-1.4025 0.2125,-2.805 0.595,-4.08 h 4.6325 c 0.255,0.4675 0.6375,0.8925 1.0625,1.2325 -0.085,1.02 -0.17,2.04 -0.17,3.06 0,1.3175 0.085,2.5925 0.255,3.8675 h -5.78 c -0.425,-1.3175 -0.595,-2.6775 -0.595,-4.08 z m 6.885,7.055003 c 0.5525,2.295 1.36,4.5475 2.465,6.6725 -3.23,-1.275 -5.9075,-3.655 -7.565,-6.6725 z"
       id="path1009-7"
       style="fill:#ffd7d7;fill-opacity:1;stroke-width:0.425" />
  </g>
</svg>
