<?xml version="1.0" encoding="UTF-8" standalone="no"?>
<svg
   xmlns:dc="http://purl.org/dc/elements/1.1/"
   xmlns:cc="http://creativecommons.org/ns#"
   xmlns:rdf="http://www.w3.org/1999/02/22-rdf-syntax-ns#"
   xmlns:svg="http://www.w3.org/2000/svg"
   xmlns="http://www.w3.org/2000/svg"
   xmlns:sodipodi="http://sodipodi.sourceforge.net/DTD/sodipodi-0.dtd"
   xmlns:inkscape="http://www.inkscape.org/namespaces/inkscape"
   viewBox="0 0 320 320"
   version="1.1"
   id="svg4"
   sodipodi:docname="xmark-solid.svg"
   width="320"
   height="320"
   inkscape:version="1.0.1 (3bc2e813f5, 2020-09-07)">
  <style
     id="style835"></style>
  <metadata
     id="metadata10">
    <rdf:RDF>
      <cc:Work
         rdf:about="">
        <dc:format>image/svg+xml</dc:format>
        <dc:type
           rdf:resource="http://purl.org/dc/dcmitype/StillImage" />
        <dc:title />
      </cc:Work>
    </rdf:RDF>
  </metadata>
  <defs
     id="defs8" />
  <sodipodi:namedview
     pagecolor="#ffffff"
     bordercolor="#666666"
     borderopacity="1"
     objecttolerance="10"
     gridtolerance="10"
     guidetolerance="10"
     inkscape:pageopacity="0"
     inkscape:pageshadow="2"
     inkscape:window-width="2560"
     inkscape:window-height="1369"
     id="namedview6"
     showgrid="false"
     inkscape:zoom="1.6445312"
     inkscape:cx="160"
     inkscape:cy="256"
     inkscape:window-x="-8"
     inkscape:window-y="-8"
     inkscape:window-maximized="1"
     inkscape:current-layer="svg4"
     inkscape:document-rotation="0" />
  <!--! Font Awesome Pro 6.2.1 by @fontawesome - https://fontawesome.com License - https://fontawesome.com/license (Commercial License) Copyright 2022 Fonticons, Inc. -->
  <g
     id="g1423"
     style="fill:#000000;fill-opacity:1">
    <g
       id="g831"
       style="opacity:1;fill:#000000;fill-opacity:1">
      <path
         id="path833"
         style="color:#000000;font-style:normal;font-variant:normal;font-weight:normal;font-stretch:normal;font-size:medium;line-height:normal;font-family:sans-serif;font-variant-ligatures:normal;font-variant-position:normal;font-variant-caps:normal;font-variant-numeric:normal;font-variant-alternates:normal;font-variant-east-asian:normal;font-feature-settings:normal;font-variation-settings:normal;text-indent:0;text-align:start;text-decoration:none;text-decoration-line:none;text-decoration-style:solid;text-decoration-color:#000000;letter-spacing:normal;word-spacing:normal;text-transform:none;writing-mode:lr-tb;direction:ltr;text-orientation:mixed;dominant-baseline:auto;baseline-shift:baseline;text-anchor:start;white-space:normal;shape-padding:0;shape-margin:0;inline-size:0;clip-rule:nonzero;display:inline;overflow:visible;visibility:visible;isolation:auto;mix-blend-mode:normal;color-interpolation:sRGB;color-interpolation-filters:linearRGB;solid-color:#000000;solid-opacity:1;vector-effect:none;fill:#000000;fill-opacity:1;fill-rule:nonzero;stroke:none;stroke-width:0.933336;stroke-linecap:butt;stroke-linejoin:round;stroke-miterlimit:4;stroke-dasharray:0.933336, 1.86668;stroke-dashoffset:0;stroke-opacity:1;color-rendering:auto;image-rendering:auto;shape-rendering:auto;text-rendering:auto;enable-background:accumulate;stop-color:#000000;stop-opacity:1"
         d="m 0.53125,-0.38085938 c 0,106.66666938 0,213.33332938 0,319.99999938 106.66667,0 213.33333,0 320,0 0,-106.66667 0,-213.33333 0,-319.99999938 -106.66667,0 -213.33333,0 -320,0 z M 279.89648,10 C 302.86535,8.8783629 318.5024,37.964267 304.9645,56.527825 287.43751,75.98067 268.07047,93.813502 249.7961,112.60813 234.01381,128.40542 218.23151,144.20271 202.44922,160 c 33.57121,33.68525 67.44223,67.08533 100.82459,100.9502 15.37906,17.14618 2.62127,47.73748 -20.40565,48.81857 -18.39126,2.33188 -28.95351,-14.49943 -40.79901,-25.3283 C 214.71277,257.11005 187.35638,229.77964 160,202.44922 126.31475,236.02043 92.91467,269.89145 59.0498,303.27381 41.903619,318.65286 11.312322,305.89508 10.231226,282.86816 7.8993501,264.4769 24.730659,253.91465 35.559528,242.06915 62.889945,214.71277 90.220363,187.35638 117.55078,160 83.979569,126.31475 50.108549,92.91467 16.726185,59.0498 1.3471339,41.903619 14.104914,11.312322 37.131839,10.231226 55.5231,7.8993502 66.085342,24.730659 77.930845,35.559528 105.28723,62.889945 132.64362,90.220363 160,117.55078 193.68525,83.979565 227.08534,50.108552 260.95021,16.726175 266.2399,12.383543 273.05661,9.9808856 279.89648,10 Z" />
      <path
         id="path835"
         style="color:#000000;font-style:normal;font-variant:normal;font-weight:normal;font-stretch:normal;font-size:medium;line-height:normal;font-family:sans-serif;font-variant-ligatures:normal;font-variant-position:normal;font-variant-caps:normal;font-variant-numeric:normal;font-variant-alternates:normal;font-variant-east-asian:normal;font-feature-settings:normal;font-variation-settings:normal;text-indent:0;text-align:start;text-decoration:none;text-decoration-line:none;text-decoration-style:solid;text-decoration-color:#000000;letter-spacing:normal;word-spacing:normal;text-transform:none;writing-mode:lr-tb;direction:ltr;text-orientation:mixed;dominant-baseline:auto;baseline-shift:baseline;text-anchor:start;white-space:normal;shape-padding:0;shape-margin:0;inline-size:0;clip-rule:nonzero;display:inline;overflow:visible;visibility:visible;isolation:auto;mix-blend-mode:normal;color-interpolation:sRGB;color-interpolation-filters:linearRGB;solid-color:#000000;solid-opacity:1;vector-effect:none;fill:#000000;fill-opacity:1;fill-rule:nonzero;stroke:none;stroke-width:0.933336;stroke-linecap:butt;stroke-linejoin:round;stroke-miterlimit:4;stroke-dasharray:0.933336, 1.86668;stroke-dashoffset:0;stroke-opacity:1;color-rendering:auto;image-rendering:auto;shape-rendering:auto;text-rendering:auto;enable-background:accumulate;stop-color:#000000;stop-opacity:1"
         d="m 0.53125,-0.84765625 c -2.0367371,2.63615965 2.1279793,1.3551172 0,0 z m 2.2597656,0 c -0.4745413,2.92091945 2.9003331,-0.48016655 0,0 z m 2.7988282,0 c -0.4745413,2.92091945 2.9003329,-0.48016645 0,0 z m 2.8007812,0 c -0.4745413,2.92091945 2.900333,-0.48016655 0,0 z m 2.800781,0 c -0.474541,2.92091945 2.900333,-0.48016665 0,0 z m 2.798828,0 c -0.474541,2.92091945 2.900333,-0.48016665 0,0 z m 2.800782,0 c -0.474541,2.92091935 2.900332,-0.48016605 0,0 z m 2.798828,0 c -0.474541,2.92091945 2.900333,-0.48016665 0,0 z m 2.800781,0 c -0.474541,2.92091945 2.900333,-0.48016665 0,0 z m 2.800781,0 c -0.474541,2.92091945 2.900333,-0.48016665 0,0 z m 2.798828,0 c -0.474541,2.92091945 2.900333,-0.48016665 0,0 z m 2.800782,0 c -0.474541,2.92091935 2.900332,-0.48016605 0,0 z m 2.800781,0 c -0.474257,2.92072905 2.89678,-0.47900385 0,0 z m 2.798828,0 c -0.474541,2.92091945 2.900333,-0.48016665 0,0 z m 2.800781,0 c -0.474541,2.92091945 2.900333,-0.48016665 0,0 z m 2.798828,0 c -0.474541,2.92091945 2.900333,-0.48016665 0,0 z m 2.800782,0 c -0.474541,2.92091935 2.900332,-0.48016605 0,0 z m 2.800781,0 c -0.474257,2.92072905 2.89678,-0.47900385 0,0 z m 2.798828,0 c -0.474541,2.92091945 2.900333,-0.48016665 0,0 z m 2.800781,0 c -0.474541,2.92091945 2.900333,-0.48016665 0,0 z m 2.798828,0 c -0.474541,2.92091945 2.900333,-0.48016665 0,0 z m 2.800782,0 c -0.474541,2.92091935 2.900332,-0.48016605 0,0 z m 2.800781,0 c -0.474257,2.92072905 2.89678,-0.47900385 0,0 z m 2.798828,0 c -0.474541,2.92091945 2.900333,-0.48016665 0,0 z m 2.800781,0 c -0.474541,2.92091945 2.900333,-0.48016665 0,0 z m 2.798828,0 c -0.474541,2.92091945 2.900333,-0.48016665 0,0 z m 2.800782,0 c -0.474541,2.92091935 2.900332,-0.48016605 0,0 z m 2.800781,0 c -0.474257,2.92072905 2.89678,-0.47900385 0,0 z m 2.798828,0 c -0.474541,2.92091945 2.900333,-0.48016665 0,0 z m 2.800781,0 c -0.474541,2.92091945 2.900333,-0.48016665 0,0 z m 2.798828,0 c -0.474541,2.92091945 2.900333,-0.48016665 0,0 z m 2.800782,0 c -0.474541,2.92091935 2.900332,-0.48016605 0,0 z m 2.800781,0 c -0.474541,2.92091945 2.900333,-0.48016665 0,0 z m 2.798828,0 c -0.474541,2.92091945 2.900333,-0.48016665 0,0 z m 2.800781,0 c -0.474541,2.92091945 2.900333,-0.48016665 0,0 z m 2.798828,0 c -0.474541,2.92091945 2.900336,-0.48016665 0,0 z m 2.800786,0 c -0.47454,2.92091905 2.90033,-0.48016425 0,0 z m 2.80078,0 c -0.47454,2.92091905 2.90033,-0.48016425 0,0 z m 2.79882,0 c -0.47454,2.92092005 2.90034,-0.48017025 0,0 z m 2.80079,0 c -0.47454,2.92091905 2.90033,-0.48016425 0,0 z m 2.80078,0 c -0.47426,2.92072895 2.89678,-0.47900325 0,0 z m 2.79883,0 c -0.47454,2.92091905 2.90033,-0.48016425 0,0 z m 2.80078,0 c -0.47454,2.92091905 2.90033,-0.48016425 0,0 z m 2.79882,0 c -0.47454,2.92092005 2.90034,-0.48017025 0,0 z m 2.80079,0 c -0.47454,2.92091905 2.90033,-0.48016425 0,0 z m 2.80078,0 c -0.47426,2.92072895 2.89678,-0.47900325 0,0 z m 2.79883,0 c -0.47454,2.92091905 2.90033,-0.48016425 0,0 z m 2.80078,0 c -0.47454,2.92091905 2.90033,-0.48016425 0,0 z m 2.79882,0 c -0.47454,2.92092005 2.90034,-0.48017025 0,0 z m 2.80079,0 c -0.47454,2.92091905 2.90033,-0.48016425 0,0 z m 2.80078,0 c -0.47426,2.92072895 2.89678,-0.47900325 0,0 z m 2.79883,0 c -0.47454,2.92091905 2.90033,-0.48016425 0,0 z m 2.80078,0 c -0.47454,2.92091905 2.90033,-0.48016425 0,0 z m 2.79882,0 c -0.47454,2.92092005 2.90034,-0.48017025 0,0 z m 2.80079,0 c -0.47454,2.92091905 2.90033,-0.48016425 0,0 z m 2.80078,0 c -0.47454,2.92091905 2.90033,-0.48016425 0,0 z m 2.79883,0 c -0.47454,2.92091905 2.90033,-0.48016425 0,0 z m 2.80078,0 c -0.47454,2.92091905 2.90033,-0.48016425 0,0 z m 2.79882,0 c -0.47454,2.92092005 2.90034,-0.48017025 0,0 z m 2.80079,0 c -0.47454,2.92091905 2.90033,-0.48016425 0,0 z m 2.80078,0 c -0.47454,2.92091905 2.90033,-0.48016425 0,0 z m 2.79883,0 c -0.47454,2.92091905 2.90033,-0.48016425 0,0 z m 2.80078,0 c -0.47454,2.92091905 2.90033,-0.48016425 0,0 z m 2.80078,0 c -0.47426,2.92072895 2.89678,-0.47900325 0,0 z m 2.79883,0 c -0.47454,2.92091905 2.90033,-0.48016425 0,0 z m 2.80078,0 c -0.47454,2.92091905 2.90033,-0.48016425 0,0 z m 2.79883,0 c -0.47454,2.92091905 2.90033,-0.48016425 0,0 z m 2.80078,0 c -0.47454,2.92091905 2.90033,-0.48016425 0,0 z m 2.80078,0 c -0.47426,2.92072895 2.89678,-0.47900325 0,0 z m 2.79883,0 c -0.47454,2.92091905 2.90033,-0.48016425 0,0 z m 2.80078,0 c -0.47454,2.92091905 2.90033,-0.48016425 0,0 z m 2.79883,0 c -0.47454,2.92091905 2.90033,-0.48016425 0,0 z m 2.80078,0 c -0.47454,2.92091905 2.90033,-0.48016425 0,0 z m 2.80078,0 c -0.47426,2.92072895 2.89678,-0.47900325 0,0 z m 2.79883,0 c -0.47454,2.92091905 2.90033,-0.48016425 0,0 z m 2.80078,0 c -0.47454,2.92091905 2.90033,-0.48016425 0,0 z m 2.79883,0 c -0.47454,2.92091905 2.90033,-0.48016425 0,0 z m 2.80078,0 c -0.47454,2.92091905 2.90033,-0.48016425 0,0 z m 2.80078,0 c -0.47454,2.92091905 2.90033,-0.48016425 0,0 z m 2.79883,0 c -0.47454,2.92091905 2.90033,-0.48016425 0,0 z m 2.80078,0 c -0.47454,2.92091905 2.90033,-0.48016425 0,0 z m 2.79883,0 c -0.47454,2.92091905 2.90033,-0.48016425 0,0 z m 2.80078,0 c -0.47454,2.92091905 2.90033,-0.48016425 0,0 z m 2.80078,0 c -0.47454,2.92091905 2.90033,-0.48016425 0,0 z m 2.79883,0 c -0.47454,2.92091905 2.90033,-0.48016425 0,0 z m 2.80078,0 c -0.47454,2.92091905 2.90033,-0.48016425 0,0 z m 2.80078,0 c -0.47426,2.92072895 2.89678,-0.47900325 0,0 z m 2.79883,0 c -0.47454,2.92091905 2.90033,-0.48016425 0,0 z m 2.80078,0 c -0.47454,2.92091905 2.90033,-0.48016425 0,0 z m 2.79883,0 c -0.47454,2.92091905 2.90033,-0.48016425 0,0 z m 2.80078,0 c -0.47454,2.92091905 2.90033,-0.48016425 0,0 z m 2.80078,0 c -0.47426,2.92072895 2.89678,-0.47900325 0,0 z m 2.79883,0 c -0.47454,2.92091905 2.90033,-0.48016425 0,0 z m 2.80078,0 c -0.47454,2.92091905 2.90033,-0.48016425 0,0 z m 2.79883,0 c -0.47454,2.92091905 2.90033,-0.48016425 0,0 z m 2.80078,0 c -0.47454,2.92091905 2.90033,-0.48016425 0,0 z m 2.80078,0 c -0.47426,2.92072895 2.89678,-0.47900325 0,0 z m 2.79883,0 c -0.47454,2.92091905 2.90033,-0.48016425 0,0 z m 2.80078,0 c -0.47454,2.92091905 2.90033,-0.48016425 0,0 z m 2.79883,0 c -0.47454,2.92091905 2.90033,-0.48016425 0,0 z m 2.80078,0 c -0.47454,2.92091905 2.90033,-0.48016425 0,0 z m 2.80078,0 c -0.47426,2.92072895 2.89678,-0.47900325 0,0 z m 2.79883,0 c -0.47454,2.92091905 2.90033,-0.48016425 0,0 z m 2.80078,0 c -0.47454,2.92091905 2.90033,-0.48016425 0,0 z m 2.79883,0 c -0.47454,2.92091905 2.90033,-0.48016425 0,0 z m 2.80078,0 c -0.47454,2.92091905 2.90033,-0.48016425 0,0 z m 2.80078,0 c -0.47454,2.92091905 2.90033,-0.48016425 0,0 z m 2.79883,0 c -0.47454,2.92091905 2.90033,-0.48016425 0,0 z m 2.80078,0 c -0.47454,2.92091905 2.90033,-0.48016425 0,0 z m 2.79883,0 c -0.47454,2.92091905 2.90033,-0.48016425 0,0 z m 2.80078,0 c -0.47454,2.92091905 2.90033,-0.48016425 0,0 z m 2.80078,0 c -0.47454,2.92091905 2.90033,-0.48016425 0,0 z m 2.79883,0 c -0.47454,2.92091905 2.90033,-0.48016425 0,0 z m 2.80078,0 c -0.47454,2.92091905 2.90033,-0.48016425 0,0 z m 2.80078,0 c -0.47426,2.92072895 2.89678,-0.47900325 0,0 z m 0.87109,1.92773435 c -0.47454,2.9209202 2.90034,-0.48017022 0,0 z M 0.06445312,2.4199219 c -0.47566713,2.9165334 2.90148478,-0.4813222 0,0 z M 320.06445,3.8808594 c -0.47454,2.9209199 2.90034,-0.4801703 0,0 z M 0.06445312,5.21875 c -0.47454129,2.9209196 2.90033298,-0.4801665 0,0 z M 320.06445,6.6796875 c -0.47454,2.9209199 2.90034,-0.4801703 0,0 z M 0.06445312,8.0195312 c -0.47454129,2.9209198 2.90033298,-0.4801665 0,0 z M 320.06445,9.4804688 c -0.47454,2.9209192 2.90034,-0.4801706 0,0 z m -40.16797,0.052734 c -0.53191,2.6736389 2.67918,-0.5118961 0,0 z m -0.74609,0.00977 c -2.96817,-0.4626368 0.57417,3.0207322 0,0 z M 39.90625,9.6269531 c -0.513607,2.6773089 2.675726,-0.5206104 0,0 z m 242.82813,0.039063 c -0.76868,2.6149674 2.71426,-0.2689258 0,0 z M 38.015625,9.6933594 c -2.976782,-0.3421648 0.680862,2.9949336 0,0 z m 238.300785,0.050781 c -2.99021,-0.188245 0.84244,2.9546714 0,0 z M 42.744141,9.75 c -0.752867,2.618342 2.71372,-0.2734767 0,0 z m -7.554688,0.257812 c -2.994015,-0.064344 0.960469,2.91943 0,0 z m 250.359377,0.05078 c -1.00243,2.533817 2.72542,-0.0083 0,0 z M 45.5625,10.134766 c -1.002722,2.53532 2.727546,-0.01748 0,0 z m 227.94922,0.07031 c -2.9916,0.09163 1.10792,2.867631 0,0 z m -241.107423,0.38086 c -2.99227,0.216688 1.23793,2.81274 0,0 z m 255.912113,0.126953 c -1.24319,2.427521 2.71754,0.246848 0,0 z m -239.984379,0.06641 c -1.238364,2.429516 2.717948,0.231207 0,0 z m -48.26757788,0.03906 c -0.47454118,2.92092 2.90033288,-0.480166 0,0 z M 270.76172,10.925781 c -2.97305,0.378943 1.37711,2.746278 0,0 z M 29.689453,11.417969 c -2.952711,0.490263 1.482084,2.69431 0,0 z m 261.322267,0.203125 c -1.47284,2.296007 2.68117,0.503921 0,0 z m -239.984376,0.05664 c -1.452375,2.307366 2.683919,0.485043 0,0 z m 217.062496,0.222657 c -2.92374,0.655748 1.63212,2.601165 0,0 z m 51.97461,0.380859 c -0.47567,2.916535 2.9015,-0.481326 0,0 z M 27.060547,12.501953 c -2.895236,0.766548 1.73216,2.540694 0,0 z m 266.544923,0.275391 c -1.66649,2.15699 2.62305,0.743857 0,0 z m -239.978517,0.04883 c -1.662372,2.15992 2.627602,0.735812 0,0 z m 211.898437,0.294922 c -2.84685,0.916898 1.85335,2.449337 0,0 z M 0.06445312,13.619141 c -0.47454176,2.920918 2.90033348,-0.480167 0,0 z M 24.544922,13.828125 c -2.812866,1.042657 1.9711,2.360597 0,0 z m 271.539058,0.345703 c -1.87053,1.983371 2.54001,0.994408 0,0 z m -239.974605,0.03906 c -1.861755,1.991501 2.54615,0.979426 0,0 z m 206.972655,0.365234 c -2.75132,1.183305 2.08953,2.256618 0,0 z m 56.98242,0.501953 c -0.47454,2.920921 2.90034,-0.48017 0,0 z M 22.167969,15.384766 c -2.703202,1.292202 2.169608,2.175864 0,0 z m 276.248051,0.410156 c -2.03936,1.810177 2.43978,1.219964 0,0 z m -239.966801,0.03125 c -2.033612,1.814435 2.440096,1.216307 0,0 z m 202.341801,0.429687 c -2.62981,1.432505 2.27391,2.063538 0,0 z M 0.06445312,16.419922 c -0.47454118,2.92092 2.90033288,-0.480166 0,0 z M 19.943359,17.15625 c -2.571179,1.539371 2.369325,1.961036 0,0 z M 300.5918,17.628906 c -2.2086,1.597481 2.31312,1.444949 0,0 z m -239.964847,0.02148 c -2.192453,1.62095 2.319113,1.43632 0,0 z m 259.437497,0.230468 c -0.47454,2.920921 2.90034,-0.48017 0,0 z m -61.40234,0.257813 c -2.49878,1.706894 2.46762,1.825623 0,0 z M 17.892578,19.125 c -2.418035,1.776313 2.545707,1.726486 0,0 z M 0.06445312,19.21875 c -0.47454118,2.92092 2.90033288,-0.480166 0,0 z M 62.642578,19.625 c -2.39886,1.732993 2.389359,1.709531 0,0 z m 239.943362,0.02734 c -2.34158,1.395736 2.17075,1.651138 0,0 z M 256.67383,20.125 c -2.40097,1.729848 2.39037,1.711339 0,0 z m 63.39062,0.554688 c -0.47454,2.920918 2.90034,-0.480171 0,0 z m -304.029294,0.59375 c -2.243453,1.986026 2.687126,1.493186 0,0 z m 48.587891,0.332031 c -2.40193,1.73314 2.390433,1.708349 0,0 z m 239.761723,0.246093 c -2.45897,1.179617 2.00862,1.844484 0,0 z M 0.06445312,22.019531 c -0.47454118,2.92092 2.90033288,-0.480166 0,0 z M 254.69531,22.105469 c -2.40095,1.729884 2.39038,1.711308 0,0 z m 65.36914,1.375 c -0.47454,2.920918 2.90034,-0.480171 0,0 z M 66.603516,23.583984 c -2.396358,1.73017 2.391112,1.710915 0,0 z m -52.220704,0.0039 c -2.044884,2.18675 2.814697,1.233048 0,0 z M 252.7168,24.085938 c -2.40097,1.729848 2.39037,1.711339 0,0 z m 53.25586,0.125 c -2.56276,0.932143 1.82541,2.02744 0,0 z M 0.06445312,24.818359 c -0.47454118,2.92092 2.90033288,-0.480166 0,0 z M 68.583984,25.5625 c -2.397283,1.733714 2.394336,1.707038 0,0 z m -55.626953,0.484375 c -1.837615,2.369653 2.919615,0.964097 0,0 z m 237.779299,0.01953 c -2.39425,1.733241 2.39008,1.709169 0,0 z m 69.32812,0.214844 c -0.47567,2.916535 2.9015,-0.481326 0,0 z m -12.73437,0.425781 c -2.63709,0.69771 1.62699,2.18949 0,0 z M 70.566406,27.541016 c -2.400964,1.729866 2.390381,1.711323 0,0 z m -70.50195288,0.07813 c -0.47454176,2.920918 2.90033348,-0.480167 0,0 z M 248.75781,28.048828 c -2.40113,1.730418 2.39098,1.706987 0,0 z M 11.763672,28.628906 c -1.598482,2.538496 3.000529,0.671346 0,0 z m 308.300778,0.451172 c -0.47454,2.920921 2.90034,-0.48017 0,0 z m -11.61718,0.242188 c -2.68907,0.44406 1.41784,2.328928 0,0 z M 72.546875,29.521484 c -2.401138,1.7304 2.390974,1.707003 0,0 z M 246.7793,30.029297 c -2.40097,1.729848 2.39037,1.711339 0,0 z M 0.06445312,30.419922 c -0.47454118,2.92092 2.90033288,-0.480166 0,0 z M 10.822266,31.308594 c -1.3569805,2.665073 3.045235,0.409474 0,0 z M 74.527344,31.5 c -2.400964,1.729866 2.390381,1.711323 0,0 z m 245.537106,0.380859 c -0.47454,2.920921 2.90034,-0.48017 0,0 z m -75.26367,0.128907 c -2.40097,1.729866 2.39039,1.71132 0,0 z m 64.51563,0.01953 c -2.72284,0.180264 1.19285,2.458683 0,0 z M 0.06445312,33.21875 c -0.47454118,2.92092 2.90033288,-0.480166 0,0 z M 76.507812,33.478516 c -2.396357,1.730171 2.391115,1.710912 0,0 z m 166.312498,0.511718 c -2.39635,1.730173 2.39112,1.710909 0,0 z m -232.687498,0.07617 c -1.1003242,2.789255 3.070887,0.117761 0,0 z m 309.931638,0.613282 c -0.47454,2.920918 2.90034,-0.480171 0,0 z m -10.13672,0.125 c -2.72544,-0.06458 0.95905,2.553508 0,0 z M 78.488281,35.457031 c -2.397282,1.733717 2.394334,1.707038 0,0 z M 240.8418,35.970703 c -2.39887,1.732977 2.38935,1.709548 0,0 z M 0.06445312,36.019531 c -0.47454118,2.92092 2.90033288,-0.480166 0,0 z M 9.703125,36.876953 c -0.8352552,2.880707 3.066417,-0.173055 0,0 z M 80.470703,37.4375 c -2.401139,1.730399 2.390974,1.707001 0,0 z m 239.593747,0.04297 c -0.47454,2.920918 2.90034,-0.480171 0,0 z M 310.2793,37.625 c -2.70845,-0.309273 0.72219,2.62792 0,0 z m -71.41602,0.328125 c -2.40115,1.730399 2.39098,1.706998 0,0 z M 0.06445312,38.820312 c -0.4756669,2.916534 2.90148458,-0.481322 0,0 z M 82.451172,39.416016 c -2.400964,1.729866 2.390381,1.711323 0,0 z M 9.5351562,39.714844 c -0.5656665,2.946547 3.0403458,-0.460933 0,0 z m 227.3496138,0.21875 c -2.40097,1.729848 2.39037,1.711339 0,0 z m 83.17968,0.347656 c -0.47454,2.920921 2.90034,-0.48017 0,0 z m -10.6289,0.171875 c -0.58848,3.070674 3.02415,-0.532168 0,0 z M 84.431641,41.394531 c -2.400965,1.729866 2.390381,1.711325 0,0 z m -84.36718788,0.22461 c -0.47454176,2.920918 2.90033348,-0.480167 0,0 z M 234.9043,41.914062 c -2.3973,1.73371 2.39434,1.707044 0,0 z m -224.3418,0.56836 c -2.7157304,-0.310869 0.73041,2.642876 0,0 z m 309.50195,0.597656 c -0.47454,2.920921 2.90034,-0.48017 0,0 z m -10.79687,0.123047 c -0.87406,2.998171 3.06077,-0.237917 0,0 z M 86.412109,43.373047 c -2.400683,1.726765 2.392463,1.713259 0,0 z m 146.513671,0.521484 c -2.40069,1.72677 2.39247,1.713256 0,0 z M 0.06445312,44.419922 c -0.47454118,2.92092 2.90033288,-0.480166 0,0 z M 10.910156,45.216797 c -2.7343784,-0.06393 0.972092,2.566287 0,0 z m 77.482422,0.134765 c -2.395164,1.736804 2.393309,1.705277 0,0 z M 230.94727,45.875 c -2.39887,1.732975 2.38935,1.709547 0,0 z m 89.11718,0.0059 c -0.47454,2.920921 2.90034,-0.48017 0,0 z m -11.2207,0.04687 c -1.14096,2.912144 3.07116,0.03107 0,0 z M 0.06445312,47.21875 c -0.47454118,2.92092 2.90033288,-0.480166 0,0 z M 90.375,47.332031 c -2.40193,1.733143 2.390432,1.708349 0,0 z m 138.59375,0.525391 c -2.40115,1.730399 2.39098,1.706998 0,0 z M 11.509766,47.90625 c -2.7282427,0.191878 1.204173,2.464348 0,0 z m 296.660154,0.693359 c -1.40488,2.792383 3.05102,0.316494 0,0 z m 11.89453,0.08008 c -0.47454,2.920918 2.90034,-0.480171 0,0 z M 92.355469,49.310547 c -2.400966,1.729864 2.390382,1.711324 0,0 z m 134.634761,0.527344 c -2.40095,1.729884 2.39038,1.711308 0,0 z M 0.06445312,50.019531 c -0.47454118,2.92092 2.90033288,-0.480166 0,0 z M 12.355469,50.527344 c -2.6932688,0.455661 1.430385,2.336383 0,0 z M 307.25,51.195312 c -1.66655,2.652008 3.01149,0.604516 0,0 z m -212.914062,0.09375 c -2.400965,1.729866 2.390381,1.711325 0,0 z m 225.728512,0.191407 c -0.47454,2.920918 2.90034,-0.480171 0,0 z m -95.05468,0.33789 c -2.39637,1.730153 2.3911,1.710931 0,0 z M 0.06445312,52.820312 c -0.4756669,2.916534 2.90148458,-0.481322 0,0 z M 13.447266,53.058594 c -2.645836,0.697529 1.643294,2.198093 0,0 z m 82.86914,0.208984 c -2.400683,1.726765 2.392461,1.713261 0,0 z M 306.0918,53.695312 c -1.90911,2.474856 2.94118,0.888841 0,0 z m -83.06055,0.103516 c -2.40098,1.729868 2.39039,1.71132 0,0 z m 97.0332,0.482422 c -0.47454,2.920921 2.90034,-0.48017 0,0 z M 98.296875,55.248047 c -2.39653,1.730694 2.391705,1.706597 0,0 z m -83.529297,0.226562 c -2.560612,0.951655 1.839371,2.030466 0,0 z M 0.06445312,55.619141 c -0.47454176,2.920918 2.90033348,-0.480167 0,0 z M 221.05273,55.779297 c -2.40095,1.729884 2.39038,1.711308 0,0 z m 83.64844,0.296875 c -2.12972,2.295144 2.847,1.146208 0,0 z m 15.36328,1.003906 c -0.47454,2.920921 2.90034,-0.48017 0,0 z M 100.2793,57.226562 c -2.400967,1.729851 2.39037,1.71134 0,0 z m -83.968753,0.533204 c -2.468502,1.177236 2.028389,1.848662 0,0 z m 202.763673,0.002 c -2.40115,1.730399 2.39098,1.706998 0,0 z m 84.02344,0.552734 c -2.34182,2.083486 2.72512,1.413565 0,0 z M 0.06445312,58.419922 c -0.47454118,2.92092 2.90033288,-0.480166 0,0 z M 102.25977,59.205078 c -2.40097,1.72985 2.39037,1.71134 0,0 z m 114.83398,0.53711 c -2.39635,1.730188 2.39111,1.710898 0,0 z m 102.9707,0.138671 c -0.47454,2.920921 2.90034,-0.48017 0,0 z m -302.005856,0.0059 c -2.338096,1.412443 2.18744,1.650679 0,0 z m 283.230466,0.507812 c -2.51387,1.843422 2.58092,1.669434 0,0 z m -197.04883,0.789063 c -2.40095,1.729884 2.39038,1.711308 0,0 z M 0.06445312,61.21875 c -0.47454118,2.92092 2.90033288,-0.480166 0,0 z M 215.11523,61.722656 c -2.40095,1.729885 2.39038,1.711308 0,0 z M 19.994141,61.876953 c -2.401933,1.73314 2.390434,1.708351 0,0 z m 279.330079,0.496094 c -2.40194,1.73314 2.39044,1.708346 0,0 z m 20.74023,0.308594 c -0.47567,2.916533 2.9015,-0.481326 0,0 z M 106.2207,63.164062 c -2.40085,1.727307 2.39307,1.708927 0,0 z m 106.91602,0.539063 c -2.40098,1.729868 2.39039,1.71132 0,0 z M 21.974609,63.855469 c -2.400683,1.726765 2.392463,1.713259 0,0 z M 0.06445312,64.019531 c -0.47454118,2.92092 2.90033288,-0.480166 0,0 z M 297.3457,64.353516 c -2.40095,1.729884 2.39038,1.711308 0,0 z m -189.14453,0.789062 c -2.39635,1.730189 2.39111,1.710899 0,0 z m 211.86328,0.337891 c -0.47454,2.920918 2.90034,-0.480171 0,0 z M 211.1582,65.683594 c -2.40095,1.729884 2.39038,1.711308 0,0 z m -187.203122,0.15039 c -2.396356,1.730172 2.391111,1.710914 0,0 z m 271.412112,0.5 c -2.40097,1.72985 2.39037,1.711341 0,0 z M 0.06445312,66.820312 c -0.4756669,2.916534 2.90148458,-0.481322 0,0 z M 110.18359,67.121094 c -2.40095,1.729884 2.39038,1.711308 0,0 z m 98.99414,0.544922 c -2.39652,1.730696 2.39172,1.706593 0,0 z M 25.9375,67.8125 c -2.400964,1.729866 2.390381,1.711323 0,0 z m 294.12695,0.46875 c -0.47454,2.920921 2.90034,-0.48017 0,0 z m -26.67773,0.0332 c -2.39635,1.730189 2.39111,1.710899 0,0 z m -181.22266,0.785156 c -2.40095,1.729885 2.39038,1.711309 0,0 z M 0.06445312,69.619141 c -0.47454176,2.920918 2.90033348,-0.480167 0,0 z M 207.19922,69.646484 c -2.40069,1.72677 2.39247,1.713256 0,0 z M 27.917969,69.792969 c -2.401141,1.730397 2.390975,1.707003 0,0 z M 291.4082,70.296875 c -2.40113,1.730416 2.39098,1.706986 0,0 z m -177.26367,0.783203 c -2.40113,1.730418 2.39098,1.706987 0,0 z m 205.91992,0 c -0.47454,2.920921 2.90034,-0.48017 0,0 z M 205.2207,71.626953 c -2.40095,1.729885 2.39038,1.711308 0,0 z M 29.898438,71.771484 c -2.400965,1.729866 2.390381,1.711325 0,0 z m 259.531252,0.50586 c -2.40194,1.733122 2.39043,1.708366 0,0 z M 0.06445312,72.419922 c -0.47454118,2.92092 2.90033288,-0.480166 0,0 z M 116.125,73.058594 c -2.40194,1.73314 2.39044,1.708346 0,0 z m 87.11719,0.548828 c -2.40097,1.729848 2.39037,1.711339 0,0 z M 31.878906,73.75 c -2.400682,1.726763 2.392461,1.713261 0,0 z m 288.185544,0.130859 c -0.47454,2.920921 2.90034,-0.48017 0,0 z m -32.61328,0.376953 c -2.40095,1.729885 2.39038,1.711309 0,0 z m -169.3457,0.779297 c -2.39635,1.730171 2.3911,1.710919 0,0 z M 0.06445312,75.21875 c -0.47454118,2.92092 2.90033288,-0.480166 0,0 z M 201.26172,75.587891 c -2.39728,1.733726 2.39433,1.70703 0,0 z M 33.859375,75.728516 c -2.396357,1.73017 2.391112,1.710913 0,0 z M 285.4707,76.238281 c -2.39635,1.730173 2.39112,1.710909 0,0 z m 34.59375,0.44336 c -0.47567,2.916533 2.9015,-0.481326 0,0 z m -199.97656,0.333984 c -2.40098,1.729868 2.39039,1.71132 0,0 z m 79.19531,0.554687 c -2.39652,1.730697 2.39172,1.706594 0,0 z M 35.841797,77.708984 c -2.401138,1.7304 2.390974,1.707003 0,0 z M 0.06445312,78.019531 c -0.47454118,2.92092 2.90033288,-0.480166 0,0 z M 283.49219,78.21875 c -2.40069,1.72675 2.39245,1.713274 0,0 z m -161.42383,0.775391 c -2.39887,1.732994 2.38937,1.709527 0,0 z m 197.99609,0.486328 c -0.47454,2.920918 2.90034,-0.480171 0,0 z m -122.75976,0.07031 c -2.40097,1.72985 2.39037,1.711341 0,0 z M 37.822266,79.6875 c -2.400966,1.729864 2.390382,1.711324 0,0 z m 243.691404,0.513672 c -2.40113,1.730416 2.39098,1.706986 0,0 z M 0.06445312,80.820312 c -0.47454118,2.92092 2.90033288,-0.480166 0,0 z M 124.04883,80.974609 c -2.40114,1.730384 2.39097,1.707018 0,0 z m 71.27734,0.556641 c -2.40095,1.729884 2.39038,1.711308 0,0 z M 39.802734,81.666016 c -2.400964,1.729868 2.390383,1.711321 0,0 z m 239.732426,0.515625 c -2.40194,1.733122 2.39043,1.708366 0,0 z m 40.52929,0.09961 c -0.47454,2.920921 2.90034,-0.48017 0,0 z M 126.0293,82.953125 c -2.40097,1.72985 2.39037,1.71134 0,0 z m 67.31836,0.558594 c -2.40097,1.729848 2.39037,1.711339 0,0 z M 0.06445312,83.619141 c -0.47454176,2.920918 2.90033348,-0.480167 0,0 z m 41.71874988,0.02539 c -2.400681,1.726764 2.39246,1.713262 0,0 z m 235.771487,0.517578 c -2.3973,1.73371 2.39434,1.707044 0,0 z m -149.54492,0.769532 c -2.39637,1.730152 2.3911,1.71093 0,0 z m 192.05468,0.148437 c -0.47454,2.920921 2.90034,-0.48017 0,0 z m -128.69726,0.41211 c -2.39637,1.730152 2.3911,1.71093 0,0 z M 43.763672,85.625 c -2.39653,1.730694 2.391707,1.706597 0,0 z m 231.812498,0.517578 c -2.39635,1.730189 2.39111,1.710899 0,0 z M 0.06445312,86.419922 c -0.47454118,2.92092 2.90033288,-0.480166 0,0 z M 129.99219,86.910156 c -2.40097,1.72985 2.39037,1.71134 0,0 z m 59.39648,0.564453 c -2.40113,1.730419 2.39098,1.706986 0,0 z M 45.746094,87.603516 c -2.40193,1.73314 2.390433,1.708349 0,0 z m 274.318356,0.277343 c -0.47454,2.920921 2.90034,-0.48017 0,0 z m -46.46679,0.242188 c -2.40097,1.729848 2.39037,1.711339 0,0 z m -141.625,0.767578 c -2.40115,1.730381 2.39097,1.707018 0,0 z M 0.06445312,89.21875 c -0.47454118,2.92092 2.90033288,-0.480166 0,0 z M 187.41016,89.455078 c -2.40194,1.733123 2.39043,1.708367 0,0 z M 47.726562,89.582031 c -2.400963,1.729869 2.390382,1.711322 0,0 z m 223.892578,0.521485 c -2.39887,1.732994 2.38937,1.709527 0,0 z m 48.44531,0.578125 c -0.47567,2.916533 2.9015,-0.481326 0,0 z m -186.11133,0.1875 c -2.40095,1.729884 2.39038,1.711308 0,0 z m 51.47852,0.566406 c -2.40097,1.729866 2.39039,1.71132 0,0 z m -135.724609,0.125 c -2.400964,1.729868 2.390383,1.711321 0,0 z M 0.06445312,92.019531 c -0.47454118,2.92092 2.90033288,-0.480166 0,0 z M 269.64062,92.085938 c -2.40113,1.730416 2.39098,1.706986 0,0 z m -133.70703,0.761718 c -2.40095,1.729885 2.39038,1.711308 0,0 z m 47.51758,0.56836 c -2.39635,1.730188 2.39111,1.710898 0,0 z m 136.61328,0.06445 c -0.47454,2.920918 2.90034,-0.480171 0,0 z M 51.6875,93.539062 c -2.400963,1.729867 2.39038,1.711324 0,0 z m 215.97266,0.527344 c -2.39637,1.730153 2.3911,1.710931 0,0 z M 0.06445312,94.820312 c -0.47454118,2.92092 2.90033288,-0.480166 0,0 z m 137.84960688,0.0059 c -2.39635,1.730172 2.39112,1.710908 0,0 z m 43.5586,0.570312 c -2.40097,1.72985 2.39037,1.711341 0,0 z M 53.667969,95.519531 c -2.396529,1.730697 2.391707,1.706597 0,0 z m 212.013671,0.527344 c -2.40098,1.729868 2.39039,1.71132 0,0 z m 54.38281,0.234375 c -0.47454,2.920921 2.90034,-0.48017 0,0 z m -180.16797,0.525391 c -2.40113,1.730416 2.39098,1.706986 0,0 z m 39.59766,0.572265 c -2.40115,1.730401 2.39098,1.706999 0,0 z M 55.650391,97.498047 c -2.400966,1.729864 2.390382,1.711324 0,0 z M 0.06445312,97.619141 c -0.47454176,2.920919 2.90033348,-0.480167 0,0 z M 263.70312,98.027344 c -2.40095,1.729884 2.39038,1.711308 0,0 z m -121.82617,0.757812 c -2.40095,1.729884 2.39038,1.711314 0,0 z m 178.1875,0.294922 c -0.47454,2.920912 2.90035,-0.480171 0,0 z m -142.54883,0.279297 c -2.40192,1.733155 2.39044,1.708345 0,0 z M 57.630859,99.476562 c -2.400964,1.729878 2.39038,1.711328 0,0 z m 204.093751,0.531248 c -2.39887,1.73299 2.38937,1.70953 0,0 z M 0.06445312,100.41992 c -0.47453767,2.92093 2.90032928,-0.480163 0,0 z M 143.85742,100.76367 c -2.40095,1.72988 2.39038,1.71131 0,0 z m 31.67774,0.57617 c -2.3973,1.73372 2.39433,1.70705 0,0 z m -115.923832,0.11524 c -2.400973,1.72986 2.390385,1.71132 0,0 z m 260.453122,0.42578 c -0.47454,2.92091 2.90035,-0.48017 0,0 z m -60.32031,0.10937 c -2.39652,1.73071 2.39171,1.70659 0,0 z m -113.90625,0.75196 c -2.40098,1.72986 2.39039,1.71131 0,0 z M 0.06445312,103.2207 c -0.47566747,2.91653 2.90148518,-0.48132 0,0 z m 173.49218688,0.0996 c -2.40069,1.72677 2.39247,1.71326 0,0 z m -111.964843,0.11524 c -2.401148,1.7304 2.390977,1.707 0,0 z m 196.173823,0.53515 c -2.40095,1.72989 2.39038,1.71132 0,0 z m 62.29883,0.71094 c -0.47454,2.92091 2.90035,-0.48017 0,0 z m -172.24609,0.0391 c -2.39424,1.73328 2.39008,1.70915 0,0 z m 23.75976,0.58008 c -2.40095,1.72988 2.39038,1.71131 0,0 z m -108.005854,0.11328 c -2.396356,1.73018 2.391108,1.71092 0,0 z m 192.214844,0.53711 c -2.40097,1.72986 2.39039,1.71132 0,0 z m -255.72265688,0.0684 c -0.47454352,2.92091 2.90033528,-0.48017 0,0 z M 149.79883,106.70117 c -2.39825,1.73697 2.39438,1.70408 0,0 z m 19.80078,0.58008 c -2.39887,1.73299 2.38937,1.70953 0,0 z m -104.044922,0.11133 c -2.400975,1.72986 2.390386,1.71132 0,0 z m 254.509762,0.0879 c -0.47454,2.92091 2.90035,-0.48017 0,0 z m -66.25586,0.45117 c -2.40095,1.72988 2.39038,1.71131 0,0 z m -102.02734,0.74805 c -2.40098,1.72986 2.39039,1.71131 0,0 z M 0.06445312,108.82031 c -0.47453767,2.92093 2.90032928,-0.48016 0,0 z M 167.62109,109.26367 c -2.40112,1.73041 2.39097,1.70699 0,0 z m -100.085934,0.10742 c -2.400961,1.72988 2.390377,1.71133 0,0 z m 184.292964,0.54102 c -2.39515,1.73679 2.39332,1.70528 0,0 z m 68.23633,0.36914 c -0.47454,2.92091 2.90035,-0.48017 0,0 z m -166.30273,0.37695 c -2.40097,1.72988 2.39039,1.71133 0,0 z m 11.8789,0.58594 c -2.39634,1.73017 2.39112,1.71091 0,0 z m -96.124995,0.10742 c -2.401132,1.73039 2.390972,1.70701 0,0 z m -69.45117188,0.26758 c -0.47454352,2.92091 2.90033528,-0.48017 0,0 z M 249.84961,111.89453 c -2.39652,1.73072 2.39171,1.70658 0,0 z m -94.10742,0.74219 c -2.40096,1.72985 2.39037,1.71134 0,0 z m 164.32226,0.44336 c -0.47454,2.92091 2.90035,-0.48017 0,0 z m -156.40234,0.14453 c -2.40097,1.72986 2.39039,1.71132 0,0 z m -92.166016,0.10547 c -2.400973,1.72986 2.390385,1.71132 0,0 z M 247.87109,113.875 c -2.40095,1.72988 2.39038,1.71131 0,0 z M 0.06445312,114.41992 c -0.47453767,2.92093 2.90032928,-0.48016 0,0 z M 157.72266,114.61719 c -2.39655,1.73067 2.3917,1.70662 0,0 z m 3.96093,0.58789 c -2.40096,1.72988 2.39039,1.7113 0,0 z m -88.207028,0.10351 c -2.396354,1.73018 2.39111,1.71092 0,0 z m 172.416018,0.54688 c -2.40098,1.72985 2.39038,1.71133 0,0 z m 74.17187,0.0254 c -0.47454,2.92091 2.90035,-0.48017 0,0 z m -160.36133,0.71484 c -2.4306,0.83262 2.24598,2.31369 0.002,0.58985 L 160,116.89062 Z m -159.63866688,0.625 c -0.47566747,2.91653 2.90148518,-0.48132 0,0 z m 75.39453088,0.0664 c -2.400957,1.72986 2.390381,1.71132 0,0 z m 168.455076,0.54883 c -2.40096,1.72988 2.39039,1.7113 0,0 z m 76.15039,0.8457 c -0.47454,2.92091 2.90035,-0.48017 0,0 z m -242.624997,0.58398 c -2.39886,1.733 2.389356,1.70954 0,0 z m 164.494137,0.55079 c -2.39636,1.73017 2.39113,1.7109 0,0 z M 0.06445312,120.01953 c -0.47454352,2.92091 2.90033528,-0.48017 0,0 z m 79.35546888,1.22656 c -2.401132,1.73039 2.390972,1.70701 0,0 z m 240.644528,0.23438 c -0.47454,2.92091 2.90035,-0.48017 0,0 z m -80.10937,0.31836 c -2.40115,1.73038 2.39097,1.70702 0,0 z M 0.06445312,122.82031 c -0.47453767,2.92093 2.90032928,-0.48016 0,0 z m 81.33593788,0.4043 c -2.400959,1.72986 2.39038,1.71132 0,0 z m 156.576169,0.55469 c -2.40096,1.72988 2.39039,1.7113 0,0 z m 82.08789,0.50195 c -0.47454,2.92091 2.90035,-0.48017 0,0 z m -236.683591,0.92187 c -2.396354,1.73018 2.391109,1.71092 0,0 z m -83.31640588,0.41602 c -0.47454352,2.92091 2.90033528,-0.48017 0,0 z M 235.99805,125.75977 c -2.40098,1.72985 2.39038,1.71133 0,0 z m 84.0664,1.32226 c -0.47567,2.91653 2.9015,-0.48133 0,0 z m -234.703122,0.0996 c -2.397276,1.73371 2.394333,1.70704 0,0 z m 148.656252,0.55859 c -2.39634,1.73018 2.39109,1.71093 0,0 z M 0.06445312,128.41992 c -0.47453767,2.92093 2.90032928,-0.48016 0,0 z M 87.34375,129.16211 c -2.401137,1.73041 2.390972,1.70699 0,0 z m 144.69531,0.55859 c -2.40095,1.72989 2.39038,1.71132 0,0 z m 88.02539,0.16016 c -0.47454,2.92091 2.90035,-0.48017 0,0 z m -230.740231,1.25976 c -2.400963,1.72988 2.390377,1.71133 0,0 z m -89.25976588,0.0801 c -0.47566747,2.91653 2.90148518,-0.48132 0,0 z M 230.06055,131.70312 c -2.40114,1.73038 2.39096,1.70703 0,0 z m 90.0039,0.97852 c -0.47454,2.92091 2.90035,-0.48017 0,0 z m -228.759762,0.4375 c -2.400959,1.72986 2.39038,1.71132 0,0 z m 136.777342,0.56445 c -2.40095,1.72989 2.39038,1.71132 0,0 z M 0.06445312,134.01953 c -0.47454352,2.92091 2.90033528,-0.48017 0,0 z m 93.22070288,1.07813 c -2.396366,1.73017 2.391116,1.71091 0,0 z m 226.779294,0.38281 c -0.47454,2.92091 2.90035,-0.48017 0,0 z m -93.96289,0.18359 c -2.39727,1.73372 2.39434,1.70705 0,0 z M 0.06445312,136.82031 c -0.47453767,2.92093 2.90032928,-0.48016 0,0 z m 95.20117188,0.25781 c -2.397446,1.73423 2.394924,1.70274 0,0 z m 128.857425,0.56641 c -2.40068,1.72675 2.39245,1.71328 0,0 z m 95.9414,0.63672 c -0.47454,2.92091 2.90035,-0.48017 0,0 z m -222.816403,0.77539 c -2.400957,1.72986 2.390379,1.71132 0,0 z m -97.18359388,0.5625 c -0.47454352,2.92091 2.90033528,-0.48017 0,0 z M 222.14453,139.625 c -2.40095,1.72988 2.39038,1.71131 0,0 z m -122.916014,1.41016 c -2.400975,1.72986 2.390384,1.71132 0,0 z m 220.835934,0.0469 c -0.47567,2.91653 2.9015,-0.48133 0,0 z m -99.89843,0.52539 c -2.40114,1.73039 2.39096,1.70701 0,0 z m -220.10156688,0.8125 c -0.47453767,2.92093 2.90032928,-0.48016 0,0 z M 101.20898,143.01367 c -2.400945,1.72988 2.39038,1.71131 0,0 z m 116.97852,0.57422 c -2.40097,1.72986 2.39039,1.71132 0,0 z m 101.87695,0.29297 c -0.47454,2.92091 2.90035,-0.48017 0,0 z m -216.875,1.11133 c -2.39423,1.73327 2.3901,1.70914 0,0 z M 0.06445312,145.2207 c -0.47566747,2.91653 2.90148518,-0.48132 0,0 z M 216.20703,145.56836 c -2.39635,1.73018 2.39111,1.7109 0,0 z m 103.85742,1.11328 c -0.47454,2.92091 2.90035,-0.48017 0,0 z m -214.89453,0.29102 c -2.39824,1.73697 2.39439,1.70407 0,0 z m 109.0586,0.57617 c -2.40098,1.72985 2.39038,1.71133 0,0 z m -214.16406688,0.4707 c -0.47454352,2.92091 2.90033528,-0.48017 0,0 z M 107.15234,148.95117 c -2.40095,1.72988 2.39038,1.71131 0,0 z m 212.91211,0.5293 c -0.47454,2.92091 2.90035,-0.48017 0,0 z M 212.25,149.5293 c -2.40098,1.72986 2.39039,1.71131 0,0 z M 0.06445312,150.82031 c -0.47453767,2.92093 2.90032928,-0.48016 0,0 z M 109.13281,150.92969 c -2.40096,1.72988 2.39039,1.7113 0,0 z m 101.13867,0.58203 c -2.40113,1.73043 2.39097,1.70698 0,0 z m 109.79297,0.76953 c -0.47454,2.92091 2.90035,-0.48017 0,0 z m -208.95117,0.62695 c -2.40097,1.72988 2.39039,1.71133 0,0 z m 97.17774,0.58399 c -2.39733,1.73341 2.39116,1.70797 0,0 z M 0.06445312,153.61914 c -0.47454352,2.92091 2.90033528,-0.48017 0,0 z M 113.09375,154.88867 c -2.40086,1.7273 2.39306,1.70894 0,0 z m 206.9707,0.19336 c -0.47567,2.91653 2.9015,-0.48133 0,0 z m -113.75195,0.39063 c -2.40098,1.72986 2.39039,1.71131 0,0 z M 0.06445312,156.41992 c -0.47453767,2.92093 2.90032928,-0.48016 0,0 z M 115.07422,156.86719 c -2.39636,1.73019 2.39112,1.71089 0,0 z m 89.25976,0.58593 c -2.40095,1.72989 2.39038,1.71132 0,0 z m 115.73047,0.42774 c -0.47454,2.92091 2.90035,-0.48017 0,0 z m -203.00781,0.96484 c -2.40097,1.72988 2.39039,1.71133 0,0 z m -116.99218688,0.375 c -0.47453767,2.92093 2.90032928,-0.48016 0,0 z M 202.35547,159.43359 c -1.59055,1.49405 2.43909,1.276 0,0 z m 117.70898,1.24805 c -0.47454,2.92091 2.90035,-0.48017 0,0 z m -203.99804,0.14453 c -2.40096,1.72985 2.39037,1.71134 0,0 z m 88.45703,0.58789 c -2.39654,1.73067 2.3917,1.70662 0,0 z M 0.06445312,162.01953 c -0.47454352,2.92091 2.90033528,-0.48017 0,0 z M 114.08594,162.80664 c -2.39636,1.73015 2.3911,1.71093 0,0 z m 92.41797,0.58594 c -2.39826,1.73697 2.39439,1.70407 0,0 z m 113.56054,0.0879 c -0.47454,2.92091 2.90035,-0.48017 0,0 z m -207.95703,1.30664 c -2.39884,1.733 2.38936,1.70952 0,0 z m -112.04296688,0.0332 c -0.47453767,2.92093 2.90032928,-0.48016 0,0 z M 208.48633,165.37109 c -2.40097,1.72986 2.39037,1.71135 0,0 z m 111.57812,0.91016 c -0.47454,2.92091 2.90035,-0.48017 0,0 z m -209.93554,0.48828 c -2.40114,1.73039 2.39096,1.70701 0,0 z m 100.33789,0.58008 c -2.40096,1.72985 2.39037,1.71134 0,0 z M 0.06445312,167.61914 c -0.47454352,2.92091 2.90033528,-0.48017 0,0 z M 108.15039,168.75 c -2.40097,1.72986 2.39039,1.71132 0,0 z m 211.91406,0.33203 c -0.47567,2.91653 2.9015,-0.48133 0,0 z m -107.61718,0.24609 c -2.39887,1.73298 2.38935,1.70956 0,0 z m -212.38281688,1.0918 c -0.47453767,2.92093 2.90032928,-0.48016 0,0 z M 106.16992,170.73047 c -2.39636,1.73017 2.39113,1.7109 0,0 z m 108.25781,0.57812 c -2.40084,1.7273 2.39306,1.70893 0,0 z m 105.63672,0.57227 c -0.47454,2.92091 2.90035,-0.48017 0,0 z m -215.87304,0.83008 c -2.4007,1.72675 2.39245,1.71327 0,0 z M 0.06445312,173.2207 c -0.47453767,2.92093 2.90032928,-0.48016 0,0 z M 216.4082,173.28711 c -2.39634,1.73017 2.39112,1.71091 0,0 z m 103.65625,1.39453 c -0.47454,2.92091 2.90035,-0.48017 0,0 z m -217.85156,0.01 c -2.400983,1.72986 2.39039,1.71131 0,0 z m 116.17773,0.57421 c -2.40095,1.72989 2.39038,1.71132 0,0 z M 0.06445312,176.01953 c -0.47454352,2.92091 2.90033528,-0.48017 0,0 z m 100.16992688,0.6543 c -2.401156,1.73038 2.39097,1.70702 0,0 z m 120.13671,0.57031 c -2.40095,1.72988 2.39038,1.71131 0,0 z m 99.69336,0.23633 c -0.47454,2.92091 2.90035,-0.48017 0,0 z M 98.255859,178.6543 c -2.400973,1.72987 2.390391,1.71132 0,0 z m -98.19140588,0.16601 c -0.47453767,2.92093 2.90032928,-0.48016 0,0 z m 222.28710688,0.4043 c -2.40113,1.73043 2.39097,1.70698 0,0 z m 97.71289,1.05664 c -0.47454,2.92091 2.90035,-0.48017 0,0 z m -223.789059,0.35352 c -2.396366,1.73017 2.391116,1.71091 0,0 z m 128.056639,0.56835 c -2.40067,1.7268 2.39246,1.71325 0,0 z M 0.06445312,181.62109 c -0.47566747,2.91653 2.90148518,-0.48132 0,0 z m 94.23242188,0.99414 c -2.400961,1.72988 2.390377,1.71133 0,0 z m 225.767575,0.4668 c -0.47454,2.92091 2.90035,-0.48017 0,0 z m -93.75195,0.0996 c -2.39635,1.73018 2.39111,1.7109 0,0 z M 0.06445312,184.41992 c -0.47453767,2.92093 2.90032928,-0.48016 0,0 z M 92.318359,184.5957 c -2.400961,1.72988 2.390378,1.71133 0,0 z m 135.976561,0.56446 c -2.40096,1.72988 2.39039,1.7113 0,0 z m 91.76953,0.7207 c -0.47454,2.92091 2.90035,-0.48017 0,0 z m -229.724606,0.69726 c -2.401132,1.73039 2.390972,1.70701 0,0 z m 139.935546,0.5625 c -2.40114,1.7304 2.39098,1.70701 0,0 z M 0.06445312,187.2207 c -0.47453767,2.92093 2.90032928,-0.48016 0,0 z m 88.29492188,1.33789 c -2.396354,1.73018 2.391108,1.71092 0,0 z m 231.705075,0.12305 c -0.47454,2.92091 2.90035,-0.48017 0,0 z m -87.80859,0.4375 c -2.40097,1.72986 2.39039,1.71132 0,0 z M 0.06445312,190.01953 c -0.47454352,2.92091 2.90033528,-0.48017 0,0 z m 86.31640588,0.51953 c -2.400961,1.72988 2.390378,1.71133 0,0 z m 147.855471,0.5586 c -2.4007,1.72675 2.39245,1.71327 0,0 z m 85.82812,0.38281 c -0.47454,2.92091 2.90035,-0.48017 0,0 z m -235.662106,1.03906 c -2.400957,1.72986 2.390379,1.71132 0,0 z m -84.33789088,0.30078 c -0.47453767,2.92093 2.90032928,-0.48016 0,0 z M 236.2168,193.07617 c -2.39636,1.73015 2.3911,1.71093 0,0 z m 83.84765,1.20508 c -0.47454,2.92091 2.90035,-0.48017 0,0 z M 82.423828,194.5 c -2.400957,1.72986 2.390379,1.71132 0,0 z m 155.775392,0.55469 c -2.39887,1.733 2.38937,1.70952 0,0 z m -238.13476688,0.5664 c -0.47566747,2.91653 2.90148518,-0.48132 0,0 z m 80.37890588,0.86133 c -2.396528,1.73071 2.391707,1.70659 0,0 z m 159.736331,0.55274 c -2.40194,1.73311 2.39043,1.70837 0,0 z m 79.88476,0.0469 c -0.47454,2.92091 2.90035,-0.48017 0,0 z M 0.06445312,198.41992 c -0.47453767,2.92093 2.90032928,-0.48016 0,0 z m 78.40039088,0.043 c -2.400957,1.72986 2.390379,1.71132 0,0 z m 163.695316,0.55078 c -2.40096,1.72985 2.39037,1.71134 0,0 z m 77.90429,0.86719 c -0.47454,2.92091 2.90035,-0.48017 0,0 z m -243.578122,0.5625 c -2.400957,1.72986 2.390379,1.71132 0,0 z m 167.654292,0.54883 c -2.40096,1.72988 2.39039,1.7113 0,0 z M 0.06445312,201.2207 c -0.47453767,2.92093 2.90032928,-0.48016 0,0 z m 74.44335888,1.20313 c -2.400973,1.72987 2.390386,1.71132 0,0 z m 86.187498,0.0605 c -2.40068,1.72677 2.39248,1.71325 0,0 z m 159.36914,0.19726 c -0.47454,2.92091 2.90035,-0.48017 0,0 z m -73.94336,0.28906 c -2.39635,1.73018 2.39112,1.71092 0,0 z m -87.40429,0.10352 c -2.40096,1.72985 2.39037,1.71134 0,0 z M 0.06445312,204.01953 c -0.47454352,2.92091 2.90033528,-0.48017 0,0 z M 72.527344,204.4043 c -2.397291,1.73371 2.394337,1.70703 0,0 z m 90.148436,0.0586 c -2.39635,1.73018 2.39111,1.7109 0,0 z m 85.42774,0.48828 c -2.40114,1.73038 2.39096,1.70703 0,0 z m -91.36719,0.10352 c -2.39638,1.73015 2.39111,1.71092 0,0 z m 163.32812,0.42773 c -0.47567,2.91653 2.9015,-0.48133 0,0 z m -249.515622,0.9043 c -2.396527,1.73071 2.391705,1.70659 0,0 z m 94.109372,0.0566 c -2.40113,1.73043 2.39097,1.70698 0,0 z M 0.06445312,206.82031 c -0.47453767,2.92093 2.90032928,-0.48016 0,0 z M 250.08398,206.92969 c -2.40096,1.72988 2.39039,1.7113 0,0 z m -95.32617,0.10547 c -2.40096,1.72988 2.39039,1.7113 0,0 z m 165.30664,1.24609 c -0.47454,2.92091 2.90035,-0.48017 0,0 z m -251.494138,0.0859 c -2.401938,1.73313 2.390439,1.70835 0,0 z m 98.068358,0.0547 c -2.40096,1.72988 2.39039,1.7113 0,0 z m 85.42578,0.48632 c -2.40095,1.72989 2.39038,1.71132 0,0 z m -99.28515,0.10938 c -2.40115,1.73038 2.39097,1.70702 0,0 z M 0.06445312,209.62109 c -0.47566747,2.91653 2.90148518,-0.48132 0,0 z m 66.52734388,0.72657 c -2.400973,1.72986 2.390385,1.71132 0,0 z m 102.027343,0.0527 c -2.40097,1.72986 2.39039,1.71132 0,0 z m 85.42578,0.48633 c -2.40095,1.72988 2.39038,1.71131 0,0 z m -103.24414,0.11133 c -2.40195,1.73313 2.39045,1.70835 0,0 z m 169.26367,0.084 c -0.47454,2.92091 2.90035,-0.48017 0,0 z m -255.451169,1.24609 c -2.400961,1.72988 2.390378,1.71133 0,0 z m 105.986329,0.0508 c -2.4007,1.72677 2.39247,1.71325 0,0 z m -170.53515688,0.041 c -0.47453767,2.92093 2.90032928,-0.48016 0,0 z M 256.02539,212.86719 c -2.39653,1.73071 2.39171,1.70658 0,0 z m -107.20508,0.11133 c -2.39728,1.73371 2.39434,1.70704 0,0 z m 171.24414,0.90234 c -0.47454,2.92091 2.90035,-0.48017 0,0 z m -257.431638,0.42773 c -2.396354,1.73018 2.39111,1.71092 0,0 z m 109.947268,0.0508 c -2.39652,1.73068 2.3917,1.7066 0,0 z m 85.42773,0.48632 c -2.40095,1.72989 2.39038,1.71132 0,0 z m -111.16601,0.11328 c -2.39637,1.73016 2.3911,1.71094 0,0 z M 0.06445312,215.2207 c -0.47453767,2.92093 2.90032928,-0.48016 0,0 z m 60.58984388,1.07032 c -2.401148,1.7304 2.390977,1.707 0,0 z m 113.908203,0.0469 c -2.40097,1.72986 2.39039,1.71132 0,0 z m 145.50195,0.34375 c -0.47454,2.92091 2.90035,-0.48017 0,0 z m -60.07617,0.14258 c -2.40097,1.72986 2.39039,1.71132 0,0 z m -115.125,0.11523 c -2.40097,1.72988 2.39039,1.71133 0,0 z M 0.06445312,218.01953 c -0.47454352,2.92091 2.90033528,-0.48017 0,0 z m 58.61132788,0.25195 c -2.401926,1.73315 2.39043,1.70836 0,0 z m 117.867189,0.0449 c -2.40098,1.72985 2.39038,1.71133 0,0 z m 85.42578,0.48632 c -2.40097,1.72988 2.39039,1.71133 0,0 z m -119.08398,0.11719 c -2.39886,1.73297 2.38935,1.70955 0,0 z m 177.17968,0.5625 c -0.47567,2.91653 2.9015,-0.48133 0,0 z m -263.367184,0.76953 c -2.400963,1.72988 2.390377,1.71133 0,0 z m 121.826174,0.043 c -2.40096,1.72985 2.39037,1.71134 0,0 z m 85.42578,0.48633 c -2.39887,1.73299 2.38937,1.70953 0,0 z m -263.88476688,0.0391 c -0.47453767,2.92093 2.90032928,-0.48016 0,0 z m 140.84179688,0.082 c -2.40114,1.7304 2.39098,1.70701 0,0 z m -86.189453,1.33008 c -2.39635,1.73017 2.391111,1.71091 0,0 z m 125.787113,0.041 c -2.39887,1.73298 2.38935,1.70954 0,0 z m 139.56054,0.008 c -0.47454,2.92091 2.90035,-0.48017 0,0 z m -54.13476,0.48047 c -2.39732,1.73342 2.39115,1.70796 0,0 z m -127.00391,0.12109 c -2.39635,1.73018 2.39111,1.7109 0,0 z M 0.06445312,223.62109 c -0.47453767,2.92093 2.90032928,-0.48016 0,0 z m 52.67382788,0.5918 c -2.400957,1.72986 2.390381,1.71132 0,0 z m 129.746099,0.041 c -2.39655,1.73067 2.3917,1.70662 0,0 z m 85.42773,0.48632 c -2.40097,1.72988 2.39039,1.71133 0,0 z m -130.96484,0.12305 c -2.40096,1.72985 2.39037,1.71134 0,0 z m 183.11718,0.21875 c -0.47454,2.92091 2.90035,-0.48017 0,0 z m -269.304684,1.11328 c -2.401134,1.73039 2.390972,1.70701 0,0 z m 133.707034,0.0371 c -2.40096,1.72985 2.39037,1.71134 0,0 z m -184.40234688,0.1875 c -0.47453767,2.92093 2.90032928,-0.48016 0,0 z M 269.89258,226.71875 c -2.40096,1.72985 2.39037,1.71134 0,0 z m -134.92383,0.125 c -2.40097,1.72986 2.39039,1.71132 0,0 z m 185.0957,1.03711 c -0.47454,2.92091 2.90035,-0.48017 0,0 z m -271.2832,0.29492 c -2.401927,1.73315 2.390432,1.70834 0,0 z m 137.66602,0.0352 c -2.40098,1.72985 2.39038,1.71133 0,0 z m 85.42578,0.48633 c -2.40098,1.72985 2.39038,1.71133 0,0 z m -138.88282,0.12695 c -2.39884,1.733 2.38936,1.70952 0,0 z M 0.06445312,229.2207 c -0.47453767,2.92093 2.90032928,-0.48016 0,0 z m 46.73632788,0.93555 c -2.397276,1.73371 2.394333,1.70704 0,0 z m 141.626949,0.0332 c -2.40095,1.72989 2.39038,1.71132 0,0 z m 85.42579,0.48828 c -2.40114,1.73038 2.39096,1.70703 0,0 z m 46.21093,0.004 c -0.47454,2.92091 2.90035,-0.48017 0,0 z m -189.05468,0.125 c -2.39654,1.73069 2.3917,1.70661 0,0 z M 0.06445312,232.01953 c -0.47454352,2.92091 2.90033528,-0.48017 0,0 z m 44.75781288,0.11719 c -2.400678,1.72676 2.39246,1.71326 0,0 z m 145.585934,0.0332 c -2.40113,1.73043 2.39097,1.70698 0,0 z m 85.42578,0.48633 c -2.39634,1.73017 2.39112,1.71091 0,0 z m -146.80273,0.13086 c -2.40097,1.72986 2.39039,1.71132 0,0 z m 191.0332,0.69531 c -0.47567,2.91653 2.9015,-0.48133 0,0 z m -277.2207,0.63477 c -2.400973,1.72986 2.390385,1.71132 0,0 z m 149.54492,0.0312 c -2.39636,1.73019 2.39112,1.71089 0,0 z m 85.42578,0.48633 c -2.39728,1.73371 2.39434,1.70704 0,0 z m -150.76172,0.13281 c -2.40096,1.72988 2.39039,1.7113 0,0 z m -126.98827688,0.0527 c -0.47453767,2.92093 2.90032928,-0.48016 0,0 z m 40.80078088,1.27735 c -2.398862,1.733 2.38936,1.70952 0,0 z m 153.505856,0.0293 c -2.40095,1.72989 2.39038,1.71132 0,0 z m 125.69336,0.1543 c -0.47454,2.92091 2.90035,-0.48017 0,0 z m -40.26757,0.33203 c -2.40096,1.72985 2.39037,1.71134 0,0 z m -154.72266,0.13477 c -2.40098,1.72986 2.39039,1.71131 0,0 z M 0.06445312,237.62109 c -0.47453767,2.92093 2.90032928,-0.48016 0,0 z m 38.82226588,0.45899 c -2.40115,1.73039 2.390978,1.707 0,0 z m 157.464841,0.0254 c -2.40096,1.72988 2.39039,1.7113 0,0 z m 85.42578,0.48828 c -2.40113,1.73043 2.39097,1.70698 0,0 z m -158.68359,0.13477 c -2.39517,1.73681 2.39331,1.70527 0,0 z m 196.9707,0.35351 c -0.47454,2.92091 2.90035,-0.48017 0,0 z m -283.1582,0.97852 c -2.396366,1.73017 2.391116,1.71091 0,0 z m 161.42578,0.0254 c -2.40114,1.73041 2.39098,1.70699 0,0 z M 0.06445312,240.41992 c -0.47453767,2.92093 2.90032928,-0.48016 0,0 z M 283.75781,240.57227 c -2.40096,1.72988 2.39039,1.7113 0,0 z m -162.64258,0.13867 c -2.40086,1.7273 2.39307,1.70893 0,0 z m 198.94922,1.16992 c -0.47454,2.92091 2.90035,-0.48017 0,0 z m -285.136716,0.16016 c -2.400973,1.72987 2.390386,1.71132 0,0 z m 165.384766,0.0234 c -2.40097,1.72988 2.39039,1.71133 0,0 z m 85.42578,0.48633 c -2.39635,1.73018 2.39111,1.7109 0,0 z m -166.60156,0.14063 c -2.40098,1.72986 2.39039,1.71131 0,0 z M 0.06445312,243.2207 c -0.47453767,2.92093 2.90032928,-0.48016 0,0 z m 32.88476588,0.80078 c -2.400963,1.72988 2.390377,1.71133 0,0 z m 169.343751,0.0215 c -2.39636,1.73017 2.3911,1.71091 0,0 z m 85.42578,0.48633 c -2.39729,1.73372 2.39433,1.70703 0,0 z m -170.56055,0.14258 c -2.40096,1.72988 2.39039,1.7113 0,0 z m 202.90625,0.01 c -0.47454,2.92091 2.90035,-0.48017 0,0 z m -289.093747,1.32031 c -2.39886,1.733 2.389356,1.70954 0,0 z m -30.90624988,0.0195 c -0.47566747,2.91653 2.90148518,-0.48132 0,0 z m 204.21093688,0 c -2.40097,1.72988 2.39039,1.71133 0,0 z m 85.42578,0.48829 c -2.40113,1.7304 2.39098,1.70698 0,0 z m -174.52148,0.14257 c -2.40097,1.72986 2.39037,1.71135 0,0 z m 204.88476,0.83008 c -0.47454,2.92093 2.90034,-0.48017 0,0 z m -291.074216,0.50196 c -2.396534,1.73068 2.391716,1.70659 0,0 z M 206.25586,248 c -2.39887,1.73299 2.38937,1.70953 0,0 z m 85.42578,0.48828 c -2.40194,1.73315 2.39044,1.70834 0,0 z m -178.48242,0.14453 c -2.39635,1.73018 2.39111,1.7109 0,0 z m -113.13476688,0.1875 c -0.47453767,2.92093 2.90032928,-0.48016 0,0 z m 26.94726588,1.14453 c -2.400963,1.72988 2.390377,1.71133 0,0 z m 181.224611,0.0156 c -2.40194,1.73311 2.39043,1.70837 0,0 z m 111.82812,0.30078 c -0.47454,2.92091 2.90035,-0.48017 0,0 z m -26.40234,0.18555 c -2.40098,1.72986 2.39039,1.71131 0,0 z m -182.44141,0.14843 c -2.40112,1.73041 2.39097,1.70699 0,0 z M 0.06445312,251.62109 c -0.47453767,2.92093 2.90032928,-0.48016 0,0 z m 24.96874988,0.32422 c -2.400957,1.72986 2.390379,1.71132 0,0 z m 185.183597,0.0137 c -2.40097,1.72986 2.39037,1.71135 0,0 z m 85.42578,0.48633 c -2.40068,1.72675 2.39245,1.71328 0,0 z m -186.40039,0.15039 c -2.40097,1.72986 2.39037,1.71135 0,0 z m 210.82226,0.48633 c -0.47454,2.92091 2.90035,-0.48017 0,0 z m -297.009762,0.84375 c -2.400959,1.72986 2.39038,1.71132 0,0 z m 189.142582,0.0117 c -2.39636,1.73015 2.3911,1.71093 0,0 z M 0.06445312,254.41992 c -0.47453767,2.92093 2.90032928,-0.48016 0,0 z m 297.55859688,0.004 c -2.39425,1.73325 2.39008,1.70916 0,0 z m -190.35938,0.15234 c -2.40095,1.72988 2.39038,1.71131 0,0 z m 212.80078,1.30469 c -0.47454,2.92091 2.90035,-0.48017 0,0 z m -298.990231,0.0254 c -2.394236,1.73325 2.390085,1.70916 0,0 z m 193.103511,0.01 c -2.39728,1.73371 2.39434,1.70704 0,0 z m 85.42774,0.48828 c -2.40115,1.73038 2.39097,1.70702 0,0 z m -194.32227,0.15234 c -2.39634,1.73017 2.39112,1.71091 0,0 z M 0.06445312,257.2207 c -0.47453767,2.92093 2.90032928,-0.48016 0,0 z m 19.03124988,0.66797 c -2.106566,1.15536 2.144206,1.86713 0,0 z m 197.064457,0.008 c -2.40114,1.73038 2.39096,1.70703 0,0 z m 85.42578,0.48633 c -2.26678,1.51491 2.25566,1.534 0,0 z m -198.28125,0.1543 c -2.40096,1.72985 2.39037,1.71134 0,0 z m 216.75976,0.14453 c -0.47454,2.92091 2.90035,-0.48017 0,0 z M 218.14062,259.875 c -2.40095,1.72988 2.39038,1.71131 0,0 z m -200.996089,0.0625 c -2.340693,1.86815 2.606917,1.62626 0,0 z m -17.08007788,0.084 c -0.47566747,2.91653 2.90148518,-0.48132 0,0 z M 303.49609,260.48633 c -2.39271,1.30368 2.10248,1.73578 0,0 z m -202.16992,0.0332 c -2.401125,1.73043 2.39097,1.70698 0,0 z m 218.73828,0.96289 c -0.47454,2.92093 2.90034,-0.48017 0,0 z m -99.94336,0.3711 c -2.40096,1.72988 2.39039,1.7113 0,0 z M 15.375,262.16016 c -2.157367,2.08155 2.743258,1.37945 0,0 z M 99.347656,262.5 c -2.400956,1.72986 2.390374,1.71133 0,0 z m 205.857424,0.25977 c -2.50929,1.06655 1.93037,1.92686 0,0 z m -305.14062688,0.0605 c -0.47453767,2.92093 2.90032928,-0.48016 0,0 z M 222.10156,263.83203 c -2.39634,1.73017 2.39112,1.71091 0,0 z m 97.96289,0.44922 c -0.47454,2.92091 2.90035,-0.48017 0,0 z m -222.697262,0.19922 c -2.396368,1.73017 2.391117,1.71091 0,0 z m -83.546876,0.0605 c -1.955002,2.26738 2.863595,1.11726 0,0 z m 292.871098,0.64062 c -2.59499,0.83197 1.74286,2.09708 0,0 z M 0.06445312,265.62109 c -0.47453767,2.92093 2.90032928,-0.48016 0,0 z M 224.08203,265.8125 c -2.39744,1.73426 2.39492,1.70271 0,0 z m -128.693358,0.64844 c -2.400691,1.72676 2.392465,1.71326 0,0 z m -82.892578,0.5957 c -1.732274,2.44414 2.955317,0.83922 0,0 z m 307.568356,0.0254 c -0.47454,2.92091 2.90035,-0.48017 0,0 z m -12.11718,0.65235 c -2.66621,0.57455 1.53462,2.25485 0,0 z m -81.88282,0.0566 c -2.40096,1.72988 2.39039,1.7113 0,0 z m -225.99999688,0.6289 c -0.47453767,2.92093 2.90032928,-0.48016 0,0 z m 93.34570288,0.0215 c -2.400973,1.72986 2.390385,1.71132 0,0 z m -81.996094,1.24218 c -1.4971258,2.59485 3.018177,0.56582 0,0 z m 216.630858,0.0859 c -2.40095,1.72988 2.39038,1.71131 0,0 z m 92.01953,0.11328 c -0.47567,2.91653 2.9015,-0.48133 0,0 z m -11.10937,0.50781 c -2.70561,0.33512 1.31931,2.38525 0,0 z m -217.523439,0.0332 c -2.40115,1.73039 2.390978,1.707 0,0 z M 0.06445312,271.2207 c -0.47453767,2.92093 2.90032928,-0.48016 0,0 z M 230.02539,271.74805 c -2.40098,1.72986 2.39039,1.71131 0,0 z M 10.580078,272.4043 c -1.2462942,2.72938 3.063934,0.26572 0,0 z m 78.871094,0 c -2.398246,1.73697 2.394386,1.70407 0,0 z m 230.613278,0.27734 c -0.47454,2.92091 2.90035,-0.48017 0,0 z m -10.35351,0.44922 c -2.72415,0.0806 1.09042,2.49751 0,0 z m -77.70508,0.59766 c -2.40088,1.7273 2.39307,1.70893 0,0 z M 0.06445312,274.02148 c -0.47566747,2.91653 2.90148518,-0.48132 0,0 z m 87.40820288,0.36329 c -2.396366,1.73017 2.391116,1.71091 0,0 z m -77.466797,0.80273 c -0.9910113,2.83061 3.077385,-0.015 0,0 z m 310.058591,0.29492 c -0.47454,2.92093 2.90034,-0.48017 0,0 z m -86.07812,0.22461 c -2.39732,1.73342 2.39115,1.70796 0,0 z m 76.22265,0.22266 c -2.72059,-0.18015 0.85334,2.59284 0,0 z m -224.714839,0.43554 c -2.400963,1.72988 2.390377,1.71133 0,0 z m -85.42968788,0.45508 c -0.47453767,2.92093 2.90032928,-0.48016 0,0 z M 235.96875,277.68555 c -2.40098,1.72986 2.39039,1.71131 0,0 z M 9.6914062,278.00977 c -0.7249493,2.90734 3.0619028,-0.28672 0,0 z m 310.3730438,0.27148 c -0.47454,2.92091 2.90035,-0.48017 0,0 z m -236.548825,0.0645 c -2.400961,1.72988 2.390377,1.71133 0,0 z m 226.929685,0.41602 c -2.69306,-0.43021 0.6091,2.65842 0,0 z M 0.06445312,279.62109 c -0.47453767,2.92093 2.90032928,-0.48016 0,0 z m 237.88476688,0.043 c -2.40097,1.72988 2.39039,1.71133 0,0 z m -156.412111,0.66406 c -2.401132,1.7304 2.390973,1.70701 0,0 z m -70.964843,0.50196 c -2.6960725,-0.45817 0.595093,2.67905 0,0 z m 309.492184,0.25195 c -0.47454,2.92091 2.90035,-0.48017 0,0 z m -10.57812,0.47266 c -0.71097,3.04642 3.04329,-0.41289 0,0 z m -69.55664,0.0879 c -2.40098,1.72985 2.39038,1.71133 0,0 z m -160.373049,0.66601 c -2.397308,1.73344 2.391158,1.70796 0,0 z m -79.49218788,0.11133 c -0.47453767,2.92093 2.90032928,-0.48016 0,0 z m 10.71289088,1.15625 c -2.7257015,-0.19672 0.838252,2.61146 0,0 z m 231.132816,0.0469 c -2.40087,1.72728 2.39305,1.70895 0,0 z m 78.15429,0.25976 c -0.47567,2.91653 2.9015,-0.48133 0,0 z m -242.486325,0.40625 c -2.400961,1.72988 2.390377,1.71133 0,0 z m 231.626955,0.006 c -0.98914,2.96774 3.06843,-0.12905 0,0 z M 0.06445312,285.2207 c -0.47453767,2.92093 2.90032928,-0.48016 0,0 z M 243.89062,285.60156 c -2.39635,1.73018 2.39112,1.71092 0,0 z m -168.291011,0.66797 c -2.400957,1.72986 2.390381,1.71132 0,0 z m -64.363281,0.0234 c -2.7329152,0.0578 1.077226,2.52332 0,0 z m 308.828122,0.38867 c -0.47454,2.92091 2.90035,-0.48017 0,0 z m -11.39257,0.31641 c -1.2623,2.8579 3.06618,0.16614 0,0 z m -62.79883,0.58203 c -2.40098,1.72985 2.39038,1.71133 0,0 z m -245.80859688,0.4414 c -0.47453767,2.92093 2.90032928,-0.48016 0,0 z M 73.621094,288.25 c -2.400957,1.72986 2.390379,1.71132 0,0 z m -61.675782,0.70703 c -2.716782,0.30466 1.308802,2.41133 0,0 z m 308.119138,0.52539 c -0.47454,2.92093 2.90034,-0.48017 0,0 z m -72.21093,0.0762 c -2.40097,1.72986 2.39037,1.71135 0,0 z m 60.0371,0.0801 c -1.53178,2.72897 3.03956,0.45404 0,0 z m -236.249995,0.59375 c -2.396527,1.73071 2.391705,1.70659 0,0 z m -71.57617188,0.58789 c -0.47453767,2.92093 2.90032928,-0.48016 0,0 z M 249.83398,291.53906 c -2.40112,1.73041 2.39097,1.70699 0,0 z m -236.933589,0.002 c -2.675629,0.56103 1.526278,2.27811 0,0 z m 293.962889,0.65625 c -1.77634,2.57542 2.98467,0.72536 0,0 z m -237.201171,0.0156 c -2.401927,1.73315 2.390433,1.70834 0,0 z m 250.402341,0.0684 c -0.47454,2.92091 2.90035,-0.48017 0,0 z m -68.25,1.23633 c -2.40068,1.72677 2.39248,1.71325 0,0 z M 0.06445312,293.62109 c -0.47453767,2.92093 2.90032928,-0.48016 0,0 z M 14.09375,294.02344 c -2.609016,0.81278 1.733001,2.12546 0,0 z m 53.589844,0.16992 c -2.400957,1.72986 2.390379,1.71132 0,0 z m 237.917966,0.45312 c -2.00973,2.39185 2.90009,1.01082 0,0 z m 14.46289,0.43555 c -0.47454,2.92091 2.90035,-0.48017 0,0 z m -66.26953,0.41406 c -2.39635,1.73018 2.39112,1.71092 0,0 z m -188.089842,0.67774 c -2.400973,1.72986 2.390385,1.71132 0,0 z m -50.189453,0.21289 c -2.528018,1.04127 1.922828,1.95511 0,0 z m -15.45117188,0.0332 c -0.47453767,2.92093 2.90032928,-0.48016 0,0 z M 304.11523,296.9668 c -2.22715,2.19785 2.79754,1.26986 0,0 z m -48.33789,0.50781 c -2.40095,1.72988 2.39038,1.71131 0,0 z m 64.28711,0.4082 c -0.47567,2.91653 2.9015,-0.48133 0,0 z M 63.724609,298.1543 c -2.397292,1.73371 2.394338,1.70703 0,0 z m -46.574218,0.44726 c -2.410961,1.28462 2.095793,1.76701 0,0 z m 285.269529,0.53516 c -2.42038,1.97581 2.65701,1.53707 0,0 z m -302.35546688,0.084 c -0.47453767,2.92093 2.90032928,-0.48016 0,0 z M 257.75781,299.45508 c -2.40114,1.73041 2.39098,1.70699 0,0 z m -196.011716,0.67969 c -2.398582,1.7299 2.391433,1.71145 0,0 z m -42.761719,0.52343 c -2.284755,1.50297 2.25535,1.56206 0,0 z m 301.080075,0.0234 c -0.47454,2.92091 2.90035,-0.48017 0,0 z m -19.53711,0.46094 c -2.59347,1.75844 2.51421,1.75906 0,0 z m -40.78906,0.27148 c -2.22181,1.5917 2.31648,1.46975 0,0 z M 0.06445312,302.02148 c -0.47453767,2.92093 2.90032928,-0.48016 0,0 z M 59.75,302.0625 c -2.661045,1.64757 2.445863,1.85925 0,0 z m -38.748047,0.47461 c -2.138828,1.70361 2.389143,1.34643 0,0 z m 277.457027,0.42773 c -2.74217,1.50026 2.34393,1.99097 0,0 z m -36.6289,0.24414 c -2.06664,1.78637 2.44011,1.25254 0,0 z m 58.23437,0.27344 c -0.47454,2.92093 2.90034,-0.48017 0,0 z m -262.453122,0.31641 c -2.803115,1.38929 2.253674,2.08484 0,0 z m -34.427734,0.42187 c -1.970341,1.8927 2.501398,1.12242 0,0 z m 273.050786,0.36524 c -2.87037,1.23895 2.13185,2.20592 0,0 z m -32.15626,0.21484 c -1.88669,1.97724 2.54621,1.01746 0,0 z m -264.01366688,0.0195 c -0.47453767,2.92093 2.90032928,-0.48016 0,0 z m 55.25390588,0.50781 c -2.924876,1.12251 2.05721,2.28185 0,0 z m -29.804687,0.36329 c -1.788364,2.06871 2.596371,0.88826 0,0 z m 268.349608,0.30078 c -2.97734,0.9678 1.93184,2.3903 0,0 z m -27.39648,0.18359 c -1.69872,2.14383 2.63329,0.77236 0,0 z m 53.59765,0.10547 c -0.47454,2.92091 2.90035,-0.48017 0,0 z m -267.169919,0.35156 c -3.012979,0.84308 1.822633,2.47056 0,0 z M 27.96875,306.9375 c -1.576095,2.23175 2.668443,0.63354 0,0 z m 263.4043,0.23242 c -3.04734,0.68112 1.6873,2.56518 0,0 z m -22.40039,0.14844 c -1.48871,2.29545 2.6936,0.52003 0,0 z M 0.06445312,307.62109 c -0.47453767,2.92093 2.90032928,-0.48016 0,0 z m 50.29101588,0.0859 c -3.078376,0.55946 1.589658,2.62704 0,0 z m -19.822266,0.24219 c -1.368941,2.36655 2.716106,0.3857 0,0 z m 258.249997,0.16016 c -3.10585,0.39211 1.4428,2.71168 0,0 z m -17.20898,0.11328 c -1.25784,2.42798 2.72903,0.26397 0,0 z m -223.845704,0.3164 c -3.113819,0.26185 1.334393,2.7688 0,0 z m -14.548828,0.17578 c -1.141503,2.48513 2.740941,0.13033 0,0 z m 252.935542,0.0859 c -3.12936,0.10715 1.19129,2.83302 0,0 z m -11.86328,0.0801 c -1.03282,2.53064 2.74125,0.0104 0,0 z m 45.8125,0.20117 c -0.47454,2.92091 2.90035,-0.48017 0,0 z m -275.027341,0.0391 c -3.122444,-0.0241 1.060776,2.87752 0,0 z m -9.152343,0.11133 c -0.897989,2.58181 2.738655,-0.13343 0,0 z m 247.509764,0.0117 c -3.11764,-0.19367 0.91831,2.93505 0,0 z m -6.41601,0.041 c -0.79966,2.616 2.73209,-0.23829 0,0 z m 3.66796,0.14648 c -3.08783,-0.47773 0.63866,3.00503 0,0 z m -238.345699,0.0195 c -3.114856,-0.30898 0.798653,2.96308 0,0 z m -3.671875,0.0449 c -0.654794,2.65316 2.714967,-0.38131 0,0 z m -38.56445288,0.92579 c -0.47566747,2.91653 2.90148518,-0.48132 0,0 z M 320.06445,311.88281 c -0.47454,2.92093 2.90034,-0.48017 0,0 z M 0.06445312,313.2207 c -0.47453767,2.92093 2.90032928,-0.48016 0,0 z M 320.06445,314.68164 c -0.47454,2.92091 2.90035,-0.48017 0,0 z M 0.06445312,316.02148 c -0.47453767,2.92093 2.90032928,-0.48016 0,0 z M 320.06445,317.48242 c -0.47454,2.92093 2.90034,-0.48017 0,0 z M 0.06445312,318.82031 c -0.2541644,2.79002 2.12199518,0.16843 0,0 z m 2.46874998,0.33203 c -0.4745377,2.92093 2.9003294,-0.48016 0,0 z m 2.8007813,0 c -0.4742531,2.92074 2.8967751,-0.479 0,0 z m 2.7988281,0 c -0.4745377,2.92093 2.9003295,-0.48016 0,0 z m 2.8007815,0 c -0.474538,2.92093 2.90033,-0.48016 0,0 z m 2.798828,0 c -0.474538,2.92093 2.90033,-0.48016 0,0 z m 2.800781,0 c -0.474538,2.92093 2.90033,-0.48016 0,0 z m 2.800781,0 c -0.474253,2.92074 2.896776,-0.479 0,0 z m 2.798828,0 c -0.474538,2.92093 2.90033,-0.48016 0,0 z m 2.800782,0 c -0.474538,2.92093 2.90033,-0.48016 0,0 z m 2.798828,0 c -0.474538,2.92093 2.90033,-0.48016 0,0 z m 2.800781,0 c -0.474538,2.92093 2.90033,-0.48016 0,0 z m 2.800781,0 c -0.474253,2.92074 2.896776,-0.479 0,0 z m 2.798828,0 c -0.474538,2.92093 2.90033,-0.48016 0,0 z m 2.800782,0 c -0.474538,2.92093 2.90033,-0.48016 0,0 z m 2.798828,0 c -0.474538,2.92093 2.90033,-0.48016 0,0 z m 2.800781,0 c -0.474538,2.92093 2.90033,-0.48016 0,0 z m 2.800781,0 c -0.474538,2.92093 2.90033,-0.48016 0,0 z m 2.798828,0 c -0.474538,2.92093 2.90033,-0.48016 0,0 z m 2.800782,0 c -0.474538,2.92093 2.90033,-0.48016 0,0 z m 2.798828,0 c -0.474538,2.92093 2.90033,-0.48016 0,0 z m 2.800781,0 c -0.474538,2.92093 2.90033,-0.48016 0,0 z m 2.800781,0 c -0.474538,2.92093 2.90033,-0.48016 0,0 z m 2.798828,0 c -0.474538,2.92093 2.90033,-0.48016 0,0 z m 2.800782,0 c -0.474538,2.92093 2.90033,-0.48016 0,0 z m 2.800781,0 c -0.474253,2.92074 2.896776,-0.479 0,0 z m 2.798828,0 c -0.474538,2.92093 2.90033,-0.48016 0,0 z m 2.800781,0 c -0.474538,2.92093 2.90033,-0.48016 0,0 z m 2.798828,0 c -0.474538,2.92093 2.90033,-0.48016 0,0 z m 2.800782,0 c -0.474538,2.92093 2.90033,-0.48016 0,0 z m 2.800781,0 c -0.474253,2.92074 2.896776,-0.479 0,0 z m 2.798828,0 c -0.474538,2.92093 2.90033,-0.48016 0,0 z m 2.800781,0 c -0.474538,2.92093 2.90033,-0.48016 0,0 z m 2.798828,0 c -0.474538,2.92093 2.90033,-0.48016 0,0 z m 2.800782,0 c -0.474538,2.92093 2.90033,-0.48016 0,0 z m 2.800781,0 c -0.474253,2.92074 2.896775,-0.479 0,0 z m 2.798825,0 c -0.47454,2.92093 2.90034,-0.48017 0,0 z m 2.80078,0 c -0.47454,2.92093 2.90034,-0.48017 0,0 z m 2.79883,0 c -0.47454,2.92093 2.90034,-0.48017 0,0 z m 2.80078,0 c -0.47454,2.92093 2.90034,-0.48017 0,0 z m 2.80079,0 c -0.47454,2.92093 2.90032,-0.48016 0,0 z m 2.79882,0 c -0.47454,2.92093 2.90034,-0.48017 0,0 z m 2.80078,0 c -0.47454,2.92093 2.90034,-0.48017 0,0 z m 2.79883,0 c -0.47454,2.92093 2.90034,-0.48017 0,0 z m 2.80078,0 c -0.47454,2.92093 2.90034,-0.48017 0,0 z m 2.80079,0 c -0.47454,2.92093 2.90032,-0.48016 0,0 z m 2.79882,0 c -0.47454,2.92093 2.90034,-0.48017 0,0 z m 2.80078,0 c -0.47454,2.92093 2.90034,-0.48017 0,0 z m 2.80079,0 c -0.47425,2.92074 2.89677,-0.479 0,0 z m 2.79882,0 c -0.47454,2.92093 2.90034,-0.48017 0,0 z m 2.80079,0 c -0.47454,2.92093 2.90032,-0.48016 0,0 z m 2.79882,0 c -0.47454,2.92093 2.90034,-0.48017 0,0 z m 2.80078,0 c -0.47454,2.92093 2.90034,-0.48017 0,0 z m 2.80079,0 c -0.47425,2.92074 2.89677,-0.479 0,0 z m 2.79882,0 c -0.47454,2.92093 2.90034,-0.48017 0,0 z m 2.80079,0 c -0.47454,2.92093 2.90032,-0.48016 0,0 z m 2.79882,0 c -0.47454,2.92093 2.90034,-0.48017 0,0 z m 2.80078,0 c -0.47454,2.92093 2.90034,-0.48017 0,0 z m 2.80079,0 c -0.47425,2.92074 2.89677,-0.479 0,0 z m 2.79882,0 c -0.47454,2.92093 2.90034,-0.48017 0,0 z m 2.80079,0 c -0.47454,2.92093 2.90032,-0.48016 0,0 z m 2.79882,0 c -0.47454,2.92093 2.90034,-0.48017 0,0 z m 2.80078,0 c -0.47454,2.92093 2.90034,-0.48017 0,0 z m 2.80079,0 c -0.47454,2.92093 2.90032,-0.48016 0,0 z m 2.79882,0 c -0.47454,2.92093 2.90034,-0.48017 0,0 z m 2.80079,0 c -0.47454,2.92093 2.90032,-0.48016 0,0 z m 2.79882,0 c -0.47454,2.92093 2.90034,-0.48017 0,0 z m 2.80078,0 c -0.47454,2.92093 2.90034,-0.48017 0,0 z m 2.80079,0 c -0.47454,2.92093 2.90032,-0.48016 0,0 z m 2.79882,0 c -0.47454,2.92093 2.90034,-0.48017 0,0 z m 2.80079,0 c -0.47454,2.92093 2.90032,-0.48016 0,0 z m 2.80078,0 c -0.47425,2.92074 2.89677,-0.479 0,0 z m 2.79882,0 c -0.47454,2.92093 2.90034,-0.48017 0,0 z m 2.80079,0 c -0.47454,2.92093 2.90032,-0.48016 0,0 z m 2.79882,0 c -0.47454,2.92093 2.90034,-0.48017 0,0 z m 2.80079,0 c -0.47454,2.92093 2.90032,-0.48016 0,0 z m 2.80078,0 c -0.47425,2.92074 2.89677,-0.479 0,0 z m 2.79882,0 c -0.47454,2.92093 2.90034,-0.48017 0,0 z m 2.80079,0 c -0.47454,2.92093 2.90032,-0.48016 0,0 z m 2.79882,0 c -0.47454,2.92093 2.90034,-0.48017 0,0 z m 2.80079,0 c -0.47454,2.92093 2.90032,-0.48016 0,0 z m 2.80078,0 c -0.47425,2.92074 2.89677,-0.479 0,0 z m 2.79882,0 c -0.47454,2.92093 2.90034,-0.48017 0,0 z m 2.80079,0 c -0.47454,2.92093 2.90032,-0.48016 0,0 z m 2.79882,0 c -0.47454,2.92093 2.90034,-0.48017 0,0 z m 2.80079,0 c -0.47454,2.92093 2.90032,-0.48016 0,0 z m 2.80078,0 c -0.47425,2.92074 2.89677,-0.479 0,0 z m 2.79882,0 c -0.47454,2.92093 2.90034,-0.48017 0,0 z m 2.80079,0 c -0.47454,2.92093 2.90032,-0.48016 0,0 z m 2.79882,0 c -0.47454,2.92093 2.90034,-0.48017 0,0 z m 2.80079,0 c -0.47454,2.92093 2.90032,-0.48016 0,0 z m 2.80078,0 c -0.47454,2.92093 2.90032,-0.48016 0,0 z m 2.79882,0 c -0.47454,2.92093 2.90034,-0.48017 0,0 z m 2.80079,0 c -0.47454,2.92093 2.90032,-0.48016 0,0 z m 2.79882,0 c -0.47454,2.92093 2.90034,-0.48017 0,0 z m 2.80079,0 c -0.47454,2.92093 2.90032,-0.48016 0,0 z m 2.80078,0 c -0.47454,2.92093 2.90032,-0.48016 0,0 z m 2.79882,0 c -0.47454,2.92093 2.90034,-0.48017 0,0 z m 2.80079,0 c -0.47454,2.92093 2.90032,-0.48016 0,0 z m 2.80078,0 c -0.47425,2.92074 2.89677,-0.479 0,0 z m 2.79883,0 c -0.47454,2.92093 2.90032,-0.48016 0,0 z m 2.80078,0 c -0.47454,2.92093 2.90032,-0.48016 0,0 z m 2.79882,0 c -0.47454,2.92093 2.90034,-0.48017 0,0 z m 2.80079,0 c -0.47454,2.92093 2.90032,-0.48016 0,0 z m 2.80078,0 c -0.47425,2.92074 2.89677,-0.479 0,0 z m 2.79883,0 c -0.47454,2.92093 2.90032,-0.48016 0,0 z m 2.80078,0 c -0.47454,2.92093 2.90032,-0.48016 0,0 z m 2.79882,0 c -0.47454,2.92093 2.90034,-0.48017 0,0 z m 2.80079,0 c -0.47454,2.92093 2.90032,-0.48016 0,0 z m 2.80078,0 c -0.47425,2.92074 2.89677,-0.479 0,0 z m 2.79883,0 c -0.47454,2.92093 2.90032,-0.48016 0,0 z m 2.80078,0 c -0.47454,2.92093 2.90032,-0.48016 0,0 z m 2.79882,0 c -0.47454,2.92093 2.90034,-0.48017 0,0 z m 2.80079,0 c -0.47454,2.92093 2.90032,-0.48016 0,0 z m 2.80078,0 c -0.47454,2.92093 2.90032,-0.48016 0,0 z" />
    </g>
  </g>
</svg>
